<svg xmlns="http://www.w3.org/2000/svg" width="24" height="24" viewBox="0 0 24 24" fill="none">
    <g clip-path="url(#clip0)">
        <path d="M21.0885 4.85934L12.0682 0.052884C11.9344 -0.0185362 11.774 -0.0175338 11.6412 0.05539L2.87057 4.86185C2.72672 4.94078 2.63751 5.09164 2.63751 5.25578V11.5342C2.64277 16.6953 5.70056 21.3644 10.4293 23.4321L11.6467 23.9626C11.7605 24.0122 11.8901 24.0125 12.0041 23.9631L13.3759 23.3707C18.1923 21.3479 21.3258 16.6337 21.3263 11.4097V5.25578C21.3263 5.08989 21.2348 4.93728 21.0885 4.85934ZM20.4282 11.4097C20.4272 16.2735 17.509 20.6623 13.0243 22.5445L13.0213 22.546L11.8267 23.0617L10.7887 22.6089C6.38695 20.6843 3.54041 16.3384 3.5354 11.5342V5.52167L11.86 0.959294L20.4282 5.52493V11.4097Z" fill="#29C5C2"/>
        <path d="M8.5473 11.2431C8.38617 11.0544 8.10275 11.0321 7.91405 11.1932C7.72535 11.3541 7.70304 11.6378 7.86418 11.8263L10.2363 14.6041C10.3947 14.7896 10.6721 14.8149 10.8611 14.661L16.3857 10.1663C16.5782 10.0099 16.6073 9.727 16.4506 9.53454C16.2943 9.34233 16.0113 9.31301 15.8189 9.46964L10.6345 13.6872L8.5473 11.2431Z" fill="#29C5C2"/>
    </g>
    <defs>
        <clipPath id="clip0">
            <rect width="24" height="24" fill="white"/>
        </clipPath>
    </defs>
</svg>