<svg xmlns="http://www.w3.org/2000/svg" width="14" height="13" viewBox="0 0 14 13" fill="none">
    <path d="M11.2032 9.29262L8.9742 8.25782C8.76397 8.1601 8.6333 7.9638 8.6333 7.7454V7.01285C8.68673 6.95218 8.74297 6.88307 8.80107 6.8068C9.09017 6.42763 9.32187 6.00557 9.49033 5.55035C9.81957 5.41017 10.0333 5.10792 10.0333 4.76667V3.9C10.0333 3.69135 9.9493 3.4892 9.79997 3.33125V2.1788C9.81303 2.05963 9.86437 1.35027 9.31183 0.76505C8.83257 0.2574 8.05487 0 6.99997 0C5.94507 0 5.16737 0.2574 4.6881 0.764833C4.13557 1.35005 4.1869 2.05963 4.19997 2.1788V3.33125C4.05063 3.4892 3.96663 3.69135 3.96663 3.9V4.76667C3.96663 5.03035 4.09567 5.27627 4.31593 5.44028C4.52967 6.22613 4.97697 6.81828 5.1333 7.0083V7.72525C5.1333 7.93498 5.0101 8.12738 4.812 8.22792L2.73043 9.28222C2.05353 9.6252 1.6333 10.2826 1.6333 10.9984V11.7C1.6333 12.7283 5.1438 13 6.99997 13C8.85613 13 12.3666 12.7283 12.3666 11.7V11.0407C12.3666 10.2958 11.9207 9.62585 11.2032 9.29262ZM11.9 11.7C11.9 11.994 10.1705 12.5667 6.99997 12.5667C3.82943 12.5667 2.09997 11.994 2.09997 11.7V10.9984C2.09997 10.4414 2.4271 9.9294 2.95373 9.6629L5.0353 8.6086C5.38367 8.43202 5.59997 8.09337 5.59997 7.72525V6.85447L5.5456 6.79423C5.54 6.78795 4.9681 6.14553 4.74993 5.26348L4.7287 5.17768L4.64913 5.13002C4.51403 5.04898 4.4333 4.91313 4.4333 4.76667V3.9C4.4333 3.77845 4.48883 3.66513 4.58963 3.58042L4.66663 3.51607V2.16667L4.66453 2.13828C4.66383 2.13243 4.5845 1.53183 5.03903 1.0504C5.42567 0.6409 6.08553 0.433333 6.99997 0.433333C7.91113 0.433333 8.5696 0.639383 8.9567 1.04607C9.411 1.52295 9.33587 2.13308 9.3354 2.13828L9.3333 3.51607L9.4103 3.58063C9.5111 3.66513 9.56663 3.77845 9.56663 3.9V4.76667C9.56663 4.95582 9.43317 5.12135 9.23483 5.17812L9.11863 5.21127L9.0813 5.31852C8.9252 5.7694 8.70283 6.18583 8.42003 6.55633C8.35073 6.64755 8.2833 6.72837 8.22473 6.79012L8.16663 6.85165V7.7454C8.16663 8.1289 8.396 8.47362 8.76537 8.64522L10.9944 9.68002C11.553 9.93937 11.9 10.4607 11.9 11.0407V11.7Z" fill="white"/>
</svg>