<svg xmlns="http://www.w3.org/2000/svg" width="183" height="59" viewBox="0 0 183 59" fill="none">
    <path d="M26.0359 6C27.5755 3.33334 31.4245 3.33333 32.9641 6L51.5837 38.25C53.1233 40.9167 51.1988 44.25 48.1196 44.25H10.8805C7.80128 44.25 5.87678 40.9167 7.41638 38.25L26.0359 6Z" fill="white"/>
    <path d="M81.0684 14.75L80.0137 14.8818L77.4209 26H75.0391L72.6924 17.5537H72.6396L70.293 26H67.9111L65.3008 14.8818L64.2549 14.75V13.2031H68.9658V14.75L67.7969 14.9521L69.2646 21.9658L69.3174 21.9746L71.7168 13.2031H73.6064L76.0234 21.9746L76.0762 21.9658L77.5352 14.9521L76.3662 14.75V13.2031H81.0684V14.75Z" fill="white"/>
    <path d="M80.1807 24.4619L81.0947 24.3301L84.9883 13.2031H87.6162L91.4834 24.3301L92.3975 24.4619V26H88.0381V24.4619L88.9258 24.3037L88.3633 22.5459H84.2148L83.6523 24.3037L84.54 24.4619V26H80.1807V24.4619ZM84.8213 20.6562H87.7568L86.3154 16.1475H86.2627L84.8213 20.6562Z" fill="white"/>
    <path d="M98.998 13.2119C100.393 13.2119 101.462 13.5225 102.206 14.1436C102.95 14.7588 103.322 15.6348 103.322 16.7715C103.322 17.3926 103.149 17.9434 102.804 18.4238C102.458 18.9043 101.963 19.2822 101.318 19.5576C102.016 19.7861 102.517 20.1582 102.821 20.6738C103.132 21.1895 103.287 21.8252 103.287 22.5811V23.6094C103.287 24.002 103.337 24.292 103.437 24.4795C103.536 24.667 103.7 24.7783 103.929 24.8135L104.351 24.8662V26H103.419C102.745 26 102.265 25.7656 101.978 25.2969C101.696 24.8281 101.556 24.2598 101.556 23.5918V22.5986C101.556 21.9014 101.354 21.3418 100.949 20.9199C100.545 20.498 100.003 20.2871 99.3232 20.2871H96.5459V24.6465L97.9785 24.8926V26H93.3818V24.8926L94.8145 24.6465V14.5654L93.3818 14.3193V13.2119H94.8145H98.998ZM96.5459 18.9248H98.8223C99.7891 18.9248 100.492 18.7402 100.932 18.3711C101.371 18.002 101.591 17.4629 101.591 16.7539C101.591 16.0801 101.38 15.5469 100.958 15.1543C100.536 14.7617 99.8828 14.5654 98.998 14.5654H96.5459V18.9248Z" fill="white"/>
    <path d="M105.423 24.8926L106.372 24.7607L110.846 13.2031H112.331L116.726 24.7607L117.666 24.8926V26H113.992V24.8926L114.959 24.7256L114.115 22.3701H108.991L108.121 24.7256L109.088 24.8926V26H105.423V24.8926ZM109.527 20.9199H113.588L111.602 15.4268H111.549L109.527 20.9199Z" fill="white"/>
    <path d="M131.28 13.2031V14.3193L129.848 14.5654V26H128.116L121.964 16.1211L121.911 16.1387V24.6465L123.344 24.8926V26H118.747V24.8926L120.18 24.6465V14.5654L118.747 14.3193V13.2031H120.18H121.911L128.063 23.0732L128.116 23.0557V14.5654L126.684 14.3193V13.2031H129.848H131.28Z" fill="white"/>
    <path d="M142.794 13.2031V16.0332H141.317L141.186 14.5654H138.347V24.6465L139.779 24.8926V26H135.183V24.8926L136.615 24.6465V14.5654H133.768L133.645 16.0332H132.159V13.2031H142.794Z" fill="white"/>
    <path d="M143.734 14.3193V13.2031H148.331V14.3193L146.898 14.5654V24.6465L148.331 24.8926V26H143.734V24.8926L145.167 24.6465V14.5654L143.734 14.3193Z" fill="white"/>
    <path d="M158.825 16.9824H157.516L157.19 15.1543C156.927 14.9316 156.575 14.7471 156.136 14.6006C155.696 14.4541 155.187 14.3809 154.606 14.3809C153.687 14.3809 152.98 14.5771 152.488 14.9697C151.996 15.3564 151.75 15.8633 151.75 16.4902C151.75 17.0469 151.999 17.5127 152.497 17.8877C153.001 18.2568 153.812 18.582 154.932 18.8633C156.279 19.1973 157.302 19.6895 157.999 20.3398C158.702 20.9902 159.054 21.7959 159.054 22.7568C159.054 23.7881 158.632 24.6172 157.788 25.2441C156.95 25.8711 155.852 26.1846 154.492 26.1846C153.508 26.1846 152.632 26.0234 151.864 25.7012C151.103 25.3789 150.481 24.957 150.001 24.4355V22.0537H151.302L151.636 23.8906C151.97 24.166 152.368 24.3916 152.831 24.5674C153.294 24.7432 153.848 24.8311 154.492 24.8311C155.365 24.8311 156.054 24.6465 156.558 24.2773C157.067 23.9082 157.322 23.4072 157.322 22.7744C157.322 22.1885 157.103 21.6992 156.663 21.3066C156.224 20.9082 155.447 20.5742 154.334 20.3047C152.98 19.9824 151.923 19.5078 151.161 18.8809C150.399 18.2539 150.019 17.4658 150.019 16.5166C150.019 15.5146 150.443 14.6826 151.293 14.0205C152.143 13.3525 153.247 13.0186 154.606 13.0186C155.503 13.0186 156.317 13.1738 157.05 13.4844C157.788 13.7891 158.38 14.1611 158.825 14.6006V16.9824Z" fill="white"/>
    <path d="M67.187 35.1885H69.8833V40.4307H71.8599V41H67.187V40.4307H69.2388V35.7632H67.187V35.1885ZM69.0508 33.5986C69.0508 33.4661 69.0884 33.3516 69.1636 33.2549C69.2388 33.1582 69.3641 33.1099 69.5396 33.1099C69.7114 33.1099 69.835 33.1582 69.9102 33.2549C69.9889 33.3516 70.0283 33.4661 70.0283 33.5986C70.0283 33.724 69.9889 33.835 69.9102 33.9316C69.835 34.0247 69.7114 34.0713 69.5396 34.0713C69.3641 34.0713 69.2388 34.0247 69.1636 33.9316C69.0884 33.835 69.0508 33.724 69.0508 33.5986ZM73.4639 35.1885L73.5122 36.2788C73.7163 35.9172 73.9885 35.6289 74.3286 35.4141C74.6688 35.1956 75.0555 35.0846 75.4888 35.0811C76.1262 35.0811 76.6131 35.2726 76.9497 35.6558C77.2863 36.0353 77.4564 36.576 77.46 37.2778V41H76.8154V37.2886C76.8119 36.755 76.6901 36.3468 76.4502 36.064C76.2103 35.7775 75.8379 35.6361 75.333 35.6396C75.1253 35.6396 74.9266 35.6737 74.7368 35.7417C74.5506 35.8097 74.3788 35.9028 74.2212 36.021C74.0672 36.1392 73.9294 36.2788 73.8076 36.4399C73.6895 36.6011 73.5928 36.7765 73.5176 36.9663V41H72.8731V35.1885H73.4639ZM80.8526 33.7007V35.1885H83.0064V35.7148H80.8526V39.3726C80.8562 39.5981 80.8902 39.7861 80.9546 39.9365C81.0227 40.0833 81.1122 40.2033 81.2232 40.2964C81.3378 40.3859 81.4703 40.4504 81.6206 40.4897C81.7746 40.5291 81.9411 40.5488 82.1202 40.5488C82.2992 40.5488 82.4818 40.5363 82.668 40.5112C82.8578 40.4862 83.0189 40.4611 83.1514 40.436L83.2481 40.9248C83.0941 40.9857 82.9061 41.0304 82.6841 41.0591C82.4621 41.0913 82.2365 41.1074 82.0074 41.1074C81.7496 41.1074 81.5114 41.0752 81.293 41.0107C81.0746 40.9499 80.8848 40.8514 80.7237 40.7153C80.5625 40.5757 80.4354 40.3966 80.3423 40.1782C80.2492 39.9562 80.2009 39.6859 80.1973 39.3672V35.7148H78.5806V35.1885H80.1973V33.7007H80.8526ZM87.0274 41.1074C86.6228 41.1074 86.254 41.0322 85.921 40.8818C85.5879 40.7314 85.3015 40.5273 85.0616 40.2695C84.8253 40.0117 84.6408 39.7109 84.5084 39.3672C84.3795 39.0199 84.3132 38.651 84.3096 38.2607V38.0298C84.3132 37.6144 84.3812 37.2277 84.5137 36.8696C84.6498 36.5116 84.8342 36.2 85.067 35.9351C85.2997 35.6701 85.5736 35.4624 85.8887 35.312C86.2038 35.158 86.5422 35.0811 86.9039 35.0811C87.2906 35.0811 87.6325 35.1509 87.9297 35.2905C88.2269 35.4302 88.4758 35.6217 88.6763 35.8652C88.8804 36.1051 89.0344 36.3862 89.1382 36.7085C89.2457 37.0308 89.3012 37.3763 89.3047 37.7451V38.1372H84.9542V38.2607C84.9577 38.5651 85.0097 38.8569 85.1099 39.1362C85.2102 39.4119 85.3516 39.6554 85.5342 39.8667C85.7169 40.078 85.9371 40.248 86.1949 40.377C86.4527 40.5023 86.7392 40.5649 87.0543 40.5649C87.4123 40.5685 87.7364 40.5023 88.0264 40.3662C88.3165 40.2301 88.5635 40.0332 88.7676 39.7754L89.1758 40.0815C89.0684 40.2319 88.9413 40.3716 88.7945 40.5005C88.6477 40.6258 88.483 40.7332 88.3004 40.8228C88.1213 40.9123 87.9244 40.9821 87.7095 41.0322C87.4947 41.0824 87.2673 41.1074 87.0274 41.1074ZM86.9039 35.6289C86.6425 35.6289 86.4026 35.679 86.1841 35.7793C85.9657 35.876 85.7741 36.012 85.6094 36.1875C85.4447 36.363 85.3087 36.5706 85.2012 36.8105C85.0938 37.0469 85.0204 37.3065 84.981 37.5894H88.6602V37.5195C88.6531 37.2796 88.6083 37.0469 88.5259 36.8213C88.4472 36.5921 88.3326 36.3898 88.1822 36.2144C88.0354 36.0389 87.8546 35.8975 87.6397 35.79C87.4249 35.6826 87.1796 35.6289 86.9039 35.6289ZM90.5328 32.75H93.2398V40.4307H95.2056V41H90.5328V40.4307H92.5953V33.3247H90.5328V32.75ZM98.7003 41.1074C98.2957 41.1074 97.9269 41.0322 97.5938 40.8818C97.2608 40.7314 96.9744 40.5273 96.7345 40.2695C96.4981 40.0117 96.3137 39.7109 96.1812 39.3672C96.0523 39.0199 95.9861 38.651 95.9825 38.2607V38.0298C95.9861 37.6144 96.0541 37.2277 96.1866 36.8696C96.3227 36.5116 96.5071 36.2 96.7398 35.9351C96.9726 35.6701 97.2465 35.4624 97.5616 35.312C97.8767 35.158 98.2151 35.0811 98.5768 35.0811C98.9635 35.0811 99.3054 35.1509 99.6026 35.2905C99.8998 35.4302 100.149 35.6217 100.349 35.8652C100.553 36.1051 100.707 36.3862 100.811 36.7085C100.919 37.0308 100.974 37.3763 100.978 37.7451V38.1372H96.6271V38.2607C96.6306 38.5651 96.6826 38.8569 96.7828 39.1362C96.8831 39.4119 97.0245 39.6554 97.2071 39.8667C97.3897 40.078 97.61 40.248 97.8678 40.377C98.1256 40.5023 98.412 40.5649 98.7271 40.5649C99.0852 40.5685 99.4093 40.5023 99.6993 40.3662C99.9894 40.2301 100.236 40.0332 100.441 39.7754L100.849 40.0815C100.741 40.2319 100.614 40.3716 100.467 40.5005C100.321 40.6258 100.156 40.7332 99.9732 40.8228C99.7942 40.9123 99.5973 40.9821 99.3824 41.0322C99.1676 41.0824 98.9402 41.1074 98.7003 41.1074ZM98.5768 35.6289C98.3154 35.6289 98.0755 35.679 97.857 35.7793C97.6386 35.876 97.447 36.012 97.2823 36.1875C97.1176 36.363 96.9815 36.5706 96.8741 36.8105C96.7667 37.0469 96.6933 37.3065 96.6539 37.5894H100.333V37.5195C100.326 37.2796 100.281 37.0469 100.199 36.8213C100.12 36.5921 100.005 36.3898 99.8551 36.2144C99.7083 36.0389 99.5274 35.8975 99.3126 35.79C99.0978 35.6826 98.8525 35.6289 98.5768 35.6289ZM101.873 38.0405C101.873 37.6538 101.919 37.2832 102.012 36.9287C102.105 36.5706 102.247 36.2555 102.437 35.9834C102.63 35.7077 102.87 35.4893 103.156 35.3281C103.446 35.1634 103.788 35.0811 104.182 35.0811C104.555 35.0811 104.888 35.1616 105.181 35.3228C105.478 35.4803 105.726 35.7041 105.922 35.9941L105.949 35.1885H106.551V40.8979C106.547 41.2524 106.492 41.5783 106.384 41.8755C106.277 42.1727 106.121 42.4269 105.917 42.6382C105.717 42.853 105.473 43.0195 105.187 43.1377C104.9 43.2559 104.578 43.3149 104.22 43.3149C104.048 43.3149 103.869 43.2952 103.683 43.2559C103.497 43.2165 103.314 43.1556 103.135 43.0732C102.956 42.9909 102.784 42.887 102.619 42.7617C102.458 42.64 102.317 42.4932 102.195 42.3213L102.555 41.9346C103.017 42.4932 103.557 42.7725 104.177 42.7725C104.453 42.7725 104.698 42.7277 104.913 42.6382C105.128 42.5487 105.307 42.4215 105.45 42.2568C105.597 42.0957 105.708 41.9006 105.783 41.6714C105.862 41.4458 105.903 41.1969 105.906 40.9248V40.2642C105.702 40.5363 105.452 40.7458 105.154 40.8926C104.861 41.0358 104.533 41.1074 104.172 41.1074C103.785 41.1074 103.446 41.0251 103.156 40.8604C102.87 40.6921 102.632 40.4718 102.442 40.1997C102.252 39.924 102.109 39.6089 102.012 39.2544C101.919 38.8963 101.873 38.5293 101.873 38.1533V38.0405ZM102.517 38.1533C102.517 38.4434 102.548 38.7316 102.609 39.0181C102.673 39.3045 102.775 39.5623 102.915 39.7915C103.054 40.0171 103.237 40.1997 103.463 40.3394C103.688 40.479 103.964 40.5488 104.29 40.5488C104.472 40.5488 104.646 40.5256 104.811 40.479C104.975 40.4289 105.126 40.359 105.262 40.2695C105.401 40.18 105.525 40.0726 105.632 39.9473C105.743 39.8184 105.835 39.6751 105.906 39.5176V36.7515C105.835 36.5903 105.747 36.4417 105.643 36.3057C105.539 36.1696 105.419 36.0532 105.283 35.9565C105.147 35.8563 104.997 35.7793 104.832 35.7256C104.667 35.6683 104.49 35.6396 104.3 35.6396C103.971 35.6396 103.693 35.7113 103.468 35.8545C103.242 35.9941 103.058 36.1785 102.915 36.4077C102.775 36.6333 102.673 36.8893 102.609 37.1758C102.548 37.4622 102.517 37.7505 102.517 38.0405V38.1533ZM110.373 41.1074C109.969 41.1074 109.6 41.0322 109.267 40.8818C108.934 40.7314 108.647 40.5273 108.407 40.2695C108.171 40.0117 107.987 39.7109 107.854 39.3672C107.725 39.0199 107.659 38.651 107.655 38.2607V38.0298C107.659 37.6144 107.727 37.2277 107.86 36.8696C107.996 36.5116 108.18 36.2 108.413 35.9351C108.645 35.6701 108.919 35.4624 109.235 35.312C109.55 35.158 109.888 35.0811 110.25 35.0811C110.636 35.0811 110.978 35.1509 111.276 35.2905C111.573 35.4302 111.822 35.6217 112.022 35.8652C112.226 36.1051 112.38 36.3862 112.484 36.7085C112.591 37.0308 112.647 37.3763 112.651 37.7451V38.1372H108.3V38.2607C108.304 38.5651 108.355 38.8569 108.456 39.1362C108.556 39.4119 108.697 39.6554 108.88 39.8667C109.063 40.078 109.283 40.248 109.541 40.377C109.798 40.5023 110.085 40.5649 110.4 40.5649C110.758 40.5685 111.082 40.5023 111.372 40.3662C111.662 40.2301 111.909 40.0332 112.113 39.7754L112.522 40.0815C112.414 40.2319 112.287 40.3716 112.14 40.5005C111.993 40.6258 111.829 40.7332 111.646 40.8228C111.467 40.9123 111.27 40.9821 111.055 41.0322C110.84 41.0824 110.613 41.1074 110.373 41.1074ZM110.25 35.6289C109.988 35.6289 109.748 35.679 109.53 35.7793C109.311 35.876 109.12 36.012 108.955 36.1875C108.791 36.363 108.654 36.5706 108.547 36.8105C108.44 37.0469 108.366 37.3065 108.327 37.5894H112.006V37.5195C111.999 37.2796 111.954 37.0469 111.872 36.8213C111.793 36.5921 111.678 36.3898 111.528 36.2144C111.381 36.0389 111.2 35.8975 110.985 35.79C110.771 35.6826 110.525 35.6289 110.25 35.6289ZM114.319 35.1885L114.367 36.2788C114.571 35.9172 114.844 35.6289 115.184 35.4141C115.524 35.1956 115.911 35.0846 116.344 35.0811C116.981 35.0811 117.468 35.2726 117.805 35.6558C118.141 36.0353 118.312 36.576 118.315 37.2778V41H117.671V37.2886C117.667 36.755 117.545 36.3468 117.305 36.064C117.065 35.7775 116.693 35.6361 116.188 35.6396C115.98 35.6396 115.782 35.6737 115.592 35.7417C115.406 35.8097 115.234 35.9028 115.076 36.021C114.922 36.1392 114.784 36.2788 114.663 36.4399C114.545 36.6011 114.448 36.7765 114.373 36.9663V41H113.728V35.1885H114.319ZM121.708 33.7007V35.1885H123.862V35.7148H121.708V39.3726C121.711 39.5981 121.745 39.7861 121.81 39.9365C121.878 40.0833 121.967 40.2033 122.078 40.2964C122.193 40.3859 122.325 40.4504 122.476 40.4897C122.63 40.5291 122.796 40.5488 122.975 40.5488C123.154 40.5488 123.337 40.5363 123.523 40.5112C123.713 40.4862 123.874 40.4611 124.007 40.436L124.103 40.9248C123.949 40.9857 123.761 41.0304 123.539 41.0591C123.317 41.0913 123.092 41.1074 122.862 41.1074C122.605 41.1074 122.367 41.0752 122.148 41.0107C121.93 40.9499 121.74 40.8514 121.579 40.7153C121.418 40.5757 121.291 40.3966 121.197 40.1782C121.104 39.9562 121.056 39.6859 121.052 39.3672V35.7148H119.436V35.1885H121.052V33.7007H121.708ZM131.388 35.1885H134.084V40.4307H136.061V41H131.388V40.4307H133.44V35.7632H131.388V35.1885ZM133.252 33.5986C133.252 33.4661 133.289 33.3516 133.364 33.2549C133.44 33.1582 133.565 33.1099 133.74 33.1099C133.912 33.1099 134.036 33.1582 134.111 33.2549C134.19 33.3516 134.229 33.4661 134.229 33.5986C134.229 33.724 134.19 33.835 134.111 33.9316C134.036 34.0247 133.912 34.0713 133.74 34.0713C133.565 34.0713 133.44 34.0247 133.364 33.9316C133.289 33.835 133.252 33.724 133.252 33.5986ZM137.665 35.1885L137.713 36.2788C137.917 35.9172 138.189 35.6289 138.53 35.4141C138.87 35.1956 139.256 35.0846 139.69 35.0811C140.327 35.0811 140.814 35.2726 141.151 35.6558C141.487 36.0353 141.657 36.576 141.661 37.2778V41H141.016V37.2886C141.013 36.755 140.891 36.3468 140.651 36.064C140.411 35.7775 140.039 35.6361 139.534 35.6396C139.326 35.6396 139.128 35.6737 138.938 35.7417C138.752 35.8097 138.58 35.9028 138.422 36.021C138.268 36.1392 138.13 36.2788 138.009 36.4399C137.89 36.6011 137.794 36.7765 137.718 36.9663V41H137.074V35.1885H137.665ZM145.139 40.1299L145.166 40.2427L145.198 40.1299L147.197 35.1885H147.868L145.424 41H144.898L142.448 35.1885H143.12L145.139 40.1299ZM151.228 41.1074C150.824 41.1074 150.455 41.0322 150.122 40.8818C149.789 40.7314 149.502 40.5273 149.262 40.2695C149.026 40.0117 148.842 39.7109 148.709 39.3672C148.58 39.0199 148.514 38.651 148.511 38.2607V38.0298C148.514 37.6144 148.582 37.2277 148.715 36.8696C148.851 36.5116 149.035 36.2 149.268 35.9351C149.501 35.6701 149.775 35.4624 150.09 35.312C150.405 35.158 150.743 35.0811 151.105 35.0811C151.491 35.0811 151.833 35.1509 152.131 35.2905C152.428 35.4302 152.677 35.6217 152.877 35.8652C153.081 36.1051 153.235 36.3862 153.339 36.7085C153.447 37.0308 153.502 37.3763 153.506 37.7451V38.1372H149.155V38.2607C149.159 38.5651 149.211 38.8569 149.311 39.1362C149.411 39.4119 149.553 39.6554 149.735 39.8667C149.918 40.078 150.138 40.248 150.396 40.377C150.654 40.5023 150.94 40.5649 151.255 40.5649C151.613 40.5685 151.937 40.5023 152.227 40.3662C152.517 40.2301 152.764 40.0332 152.969 39.7754L153.377 40.0815C153.269 40.2319 153.142 40.3716 152.995 40.5005C152.849 40.6258 152.684 40.7332 152.501 40.8228C152.322 40.9123 152.125 40.9821 151.91 41.0322C151.696 41.0824 151.468 41.1074 151.228 41.1074ZM151.105 35.6289C150.843 35.6289 150.603 35.679 150.385 35.7793C150.167 35.876 149.975 36.012 149.81 36.1875C149.646 36.363 149.51 36.5706 149.402 36.8105C149.295 37.0469 149.221 37.3065 149.182 37.5894H152.861V37.5195C152.854 37.2796 152.809 37.0469 152.727 36.8213C152.648 36.5921 152.533 36.3898 152.383 36.2144C152.236 36.0389 152.055 35.8975 151.841 35.79C151.626 35.6826 151.38 35.6289 151.105 35.6289ZM158.638 39.5229C158.638 39.3439 158.594 39.1882 158.504 39.0557C158.415 38.9232 158.291 38.8104 158.134 38.7173C157.98 38.6206 157.801 38.54 157.596 38.4756C157.392 38.4111 157.176 38.3556 156.947 38.3091C156.667 38.2518 156.397 38.1838 156.136 38.105C155.874 38.0226 155.641 37.9188 155.437 37.7935C155.233 37.6681 155.07 37.516 154.949 37.3369C154.827 37.1543 154.766 36.9305 154.766 36.6655C154.766 36.4149 154.829 36.1911 154.954 35.9941C155.079 35.7972 155.244 35.6307 155.448 35.4946C155.652 35.3586 155.885 35.2565 156.146 35.1885C156.408 35.1169 156.676 35.0811 156.952 35.0811C157.267 35.0811 157.561 35.1204 157.833 35.1992C158.109 35.2744 158.348 35.3872 158.553 35.5376C158.76 35.6844 158.925 35.8652 159.047 36.0801C159.168 36.2949 159.235 36.5402 159.245 36.8159H158.601C158.594 36.6297 158.544 36.4632 158.45 36.3164C158.357 36.166 158.234 36.0407 158.08 35.9404C157.926 35.8402 157.75 35.7632 157.554 35.7095C157.36 35.6558 157.16 35.6289 156.952 35.6289C156.759 35.6289 156.569 35.6504 156.383 35.6934C156.2 35.7327 156.035 35.7954 155.888 35.8813C155.745 35.9637 155.629 36.0693 155.539 36.1982C155.453 36.3236 155.41 36.4722 155.41 36.644C155.407 36.8267 155.448 36.9806 155.534 37.106C155.623 37.2277 155.743 37.3315 155.894 37.4175C156.044 37.4998 156.22 37.5697 156.42 37.627C156.624 37.6807 156.841 37.7308 157.07 37.7773C157.364 37.8382 157.643 37.9134 157.908 38.0029C158.177 38.0889 158.413 38.1981 158.617 38.3306C158.821 38.4595 158.982 38.6188 159.1 38.8086C159.219 38.9984 159.278 39.2257 159.278 39.4907C159.278 39.7629 159.211 40.001 159.079 40.2051C158.95 40.4056 158.778 40.5739 158.563 40.71C158.352 40.8424 158.109 40.9409 157.833 41.0054C157.561 41.0734 157.28 41.1074 156.99 41.1074C156.664 41.1074 156.356 41.068 156.066 40.9893C155.779 40.9105 155.525 40.7977 155.303 40.6509C155.085 40.5005 154.909 40.3179 154.777 40.103C154.644 39.8882 154.573 39.6447 154.562 39.3726H155.206C155.228 39.6017 155.296 39.7933 155.41 39.9473C155.529 40.1012 155.672 40.2248 155.84 40.3179C156.012 40.4074 156.198 40.4718 156.399 40.5112C156.599 40.547 156.796 40.5649 156.99 40.5649C157.186 40.5649 157.382 40.5452 157.575 40.5059C157.772 40.4629 157.947 40.4002 158.101 40.3179C158.259 40.2319 158.386 40.1245 158.483 39.9956C158.583 39.8631 158.635 39.7056 158.638 39.5229ZM162.563 33.7007V35.1885H164.717V35.7148H162.563V39.3726C162.566 39.5981 162.6 39.7861 162.665 39.9365C162.733 40.0833 162.822 40.2033 162.933 40.2964C163.048 40.3859 163.18 40.4504 163.331 40.4897C163.485 40.5291 163.651 40.5488 163.83 40.5488C164.009 40.5488 164.192 40.5363 164.378 40.5112C164.568 40.4862 164.729 40.4611 164.862 40.436L164.958 40.9248C164.804 40.9857 164.616 41.0304 164.394 41.0591C164.172 41.0913 163.947 41.1074 163.718 41.1074C163.46 41.1074 163.222 41.0752 163.003 41.0107C162.785 40.9499 162.595 40.8514 162.434 40.7153C162.273 40.5757 162.146 40.3966 162.053 40.1782C161.959 39.9562 161.911 39.6859 161.908 39.3672V35.7148H160.291V35.1885H161.908V33.7007H162.563ZM166.407 35.1885H169.103V40.4307H171.079V41H166.407V40.4307H168.458V35.7632H166.407V35.1885ZM168.27 33.5986C168.27 33.4661 168.308 33.3516 168.383 33.2549C168.458 33.1582 168.584 33.1099 168.759 33.1099C168.931 33.1099 169.055 33.1582 169.13 33.2549C169.209 33.3516 169.248 33.4661 169.248 33.5986C169.248 33.724 169.209 33.835 169.13 33.9316C169.055 34.0247 168.931 34.0713 168.759 34.0713C168.584 34.0713 168.458 34.0247 168.383 33.9316C168.308 33.835 168.27 33.724 168.27 33.5986ZM172.683 35.1885L172.732 36.2788C172.936 35.9172 173.208 35.6289 173.548 35.4141C173.888 35.1956 174.275 35.0846 174.708 35.0811C175.346 35.0811 175.833 35.2726 176.169 35.6558C176.506 36.0353 176.676 36.576 176.68 37.2778V41H176.035V37.2886C176.031 36.755 175.91 36.3468 175.67 36.064C175.43 35.7775 175.057 35.6361 174.553 35.6396C174.345 35.6396 174.146 35.6737 173.956 35.7417C173.77 35.8097 173.598 35.9028 173.441 36.021C173.287 36.1392 173.149 36.2788 173.027 36.4399C172.909 36.6011 172.812 36.7765 172.737 36.9663V41H172.093V35.1885H172.683ZM177.746 38.0405C177.746 37.6538 177.793 37.2832 177.886 36.9287C177.979 36.5706 178.121 36.2555 178.31 35.9834C178.504 35.7077 178.744 35.4893 179.03 35.3281C179.32 35.1634 179.662 35.0811 180.056 35.0811C180.428 35.0811 180.761 35.1616 181.055 35.3228C181.352 35.4803 181.599 35.7041 181.796 35.9941L181.823 35.1885H182.425V40.8979C182.421 41.2524 182.366 41.5783 182.258 41.8755C182.151 42.1727 181.995 42.4269 181.791 42.6382C181.59 42.853 181.347 43.0195 181.06 43.1377C180.774 43.2559 180.452 43.3149 180.094 43.3149C179.922 43.3149 179.743 43.2952 179.557 43.2559C179.37 43.2165 179.188 43.1556 179.009 43.0732C178.83 42.9909 178.658 42.887 178.493 42.7617C178.332 42.64 178.19 42.4932 178.069 42.3213L178.429 41.9346C178.891 42.4932 179.431 42.7725 180.051 42.7725C180.326 42.7725 180.572 42.7277 180.787 42.6382C181.001 42.5487 181.18 42.4215 181.324 42.2568C181.47 42.0957 181.581 41.9006 181.657 41.6714C181.735 41.4458 181.777 41.1969 181.78 40.9248V40.2642C181.576 40.5363 181.325 40.7458 181.028 40.8926C180.735 41.0358 180.407 41.1074 180.045 41.1074C179.659 41.1074 179.32 41.0251 179.03 40.8604C178.744 40.6921 178.506 40.4718 178.316 40.1997C178.126 39.924 177.983 39.6089 177.886 39.2544C177.793 38.8963 177.746 38.5293 177.746 38.1533V38.0405ZM178.391 38.1533C178.391 38.4434 178.421 38.7316 178.482 39.0181C178.547 39.3045 178.649 39.5623 178.788 39.7915C178.928 40.0171 179.111 40.1997 179.336 40.3394C179.562 40.479 179.838 40.5488 180.163 40.5488C180.346 40.5488 180.52 40.5256 180.684 40.479C180.849 40.4289 181 40.359 181.136 40.2695C181.275 40.18 181.399 40.0726 181.506 39.9473C181.617 39.8184 181.709 39.6751 181.78 39.5176V36.7515C181.709 36.5903 181.621 36.4417 181.517 36.3057C181.413 36.1696 181.293 36.0532 181.157 35.9565C181.021 35.8563 180.871 35.7793 180.706 35.7256C180.541 35.6683 180.364 35.6396 180.174 35.6396C179.845 35.6396 179.567 35.7113 179.342 35.8545C179.116 35.9941 178.932 36.1785 178.788 36.4077C178.649 36.6333 178.547 36.8893 178.482 37.1758C178.421 37.4622 178.391 37.7505 178.391 38.0405V38.1533Z" fill="white"/>
    <path d="M44.0637 17.8C45.6033 15.1334 49.4523 15.1334 50.9919 17.8L59.6762 32.8417C61.2158 35.5084 59.2913 38.8417 56.2121 38.8417H38.8435C35.7643 38.8417 33.8398 35.5084 35.3794 32.8417L44.0637 17.8Z" fill="white" fill-opacity="0.63"/>
</svg>