<svg xmlns="http://www.w3.org/2000/svg" width="40" height="40" viewBox="0 0 40 40" fill="none">
    <g clip-path="url(#clip0)">
        <path d="M35.147 8.0989L20.1132 0.0881401C19.8902 -0.0308936 19.6229 -0.0292231 19.4015 0.0923166L4.78375 8.10308C4.54401 8.23464 4.39532 8.48607 4.39532 8.75964V19.2237C4.4041 27.8255 9.50041 35.6074 17.3817 39.0535L19.4107 39.9377C19.6003 40.0204 19.8162 40.0208 20.0063 39.9385L22.2926 38.9512C30.32 35.5798 35.5425 27.7228 35.5433 19.0162V8.75964C35.5433 8.48315 35.3909 8.22879 35.147 8.0989ZM34.0464 19.0162C34.0447 27.1226 29.1811 34.4371 21.7066 37.5742L21.7016 37.5767L19.7106 38.4362L17.9806 37.6815C10.6444 34.4738 5.90016 27.2307 5.89181 19.2237V9.20278L19.7661 1.59882L34.0464 9.20821V19.0162Z" fill="#C60ECA"/>
        <path d="M14.2447 18.7386C13.9762 18.4241 13.5038 18.3869 13.1893 18.6554C12.8748 18.9236 12.8376 19.3964 13.1062 19.7105L17.0598 24.3403C17.3237 24.6493 17.7861 24.6915 18.101 24.4351L27.3088 16.9439C27.6295 16.6832 27.678 16.2117 27.4169 15.8909C27.1563 15.5706 26.6848 15.5217 26.364 15.7828L17.7234 22.812L14.2447 18.7386Z" fill="#C60ECA"/>
    </g>
    <defs>
        <clipPath id="clip0">
            <rect width="40" height="40" fill="white"/>
        </clipPath>
    </defs>
</svg>