<svg xmlns="http://www.w3.org/2000/svg" width="46" height="58" viewBox="0 0 46 58" fill="none">
    <path d="M0.334127 2.56882C0.166866 1.28366 1.28675 0.198235 2.5752 0.396706L38.4142 5.91734C39.2039 6.03898 39.8399 6.62547 40.021 7.39903L43.9816 24.3189C44.045 24.5896 44.0493 24.8706 43.9942 25.1431L40.0372 44.7104C39.8534 45.6189 39.0505 46.2725 38.1181 46.2725H7.74264C6.75864 46.2725 5.92759 45.5465 5.80136 44.5766L0.334127 2.56882Z" fill="url(#paint0_linear)"/>
    <path d="M24.5941 12.6249L23.6049 12.7478L21.173 23.1123H18.939L16.7379 15.2385H16.6885L14.4874 23.1123H12.2534L9.80503 12.7478L8.82404 12.6249V11.1829H13.2426V12.6249L12.1462 12.8133L13.5229 19.3516L13.5724 19.3598L15.8229 11.1829H17.5953L19.8623 19.3598L19.9117 19.3516L21.2802 12.8133L20.1838 12.6249V11.1829H24.5941V12.6249Z" fill="white"/>
    <path d="M23.7615 21.6785L24.6189 21.5556L28.2708 11.1829H30.7356L34.3628 21.5556L35.2202 21.6785V23.1123H31.1313V21.6785L31.9639 21.531L31.4363 19.8923H27.5453L27.0178 21.531L27.8504 21.6785V23.1123H23.7615V21.6785ZM28.1142 18.1308H30.8675L29.5156 13.9276H29.4661L28.1142 18.1308Z" fill="white"/>
    <path d="M41.9466 38.0076C42.182 37.602 42.771 37.602 43.0064 38.0076L44.999 41.441C45.2342 41.8464 44.9399 42.3528 44.4691 42.3528H40.4839C40.0131 42.3528 39.7188 41.8464 39.954 41.441L41.9466 38.0076Z" fill="white" fill-opacity="0.63"/>
    <path d="M38.422 35.713C38.6574 35.3074 39.2463 35.3074 39.4817 35.713L43.4163 42.4926C43.6515 42.898 43.3572 43.4044 42.8864 43.4044H35.0173C34.5466 43.4044 34.2522 42.898 34.4875 42.4926L38.422 35.713Z" fill="white"/>
    <path d="M12.076 27.8755L11.8161 27.8964L12.1506 29.0952L12.229 29.4619H12.2404L12.3379 29.0952L12.7795 27.7064H12.9745L13.4161 29.0952L13.5155 29.4714H13.5269L13.6129 29.0952L13.9379 27.8964L13.6779 27.8755V27.7064H14.3737V27.8755L14.173 27.8907L13.6244 29.7621H13.4294L12.9687 28.3561L12.8789 28.0009H12.8674L12.7776 28.3561L12.3245 29.7621H12.1296L11.5829 27.8907L11.3821 27.8755V27.7064H12.076V27.8755Z" fill="white"/>
    <path d="M16.119 29.7621C16.1037 29.6924 16.0929 29.6322 16.0865 29.5816C16.0801 29.5309 16.077 29.4796 16.077 29.4277C16.0005 29.5353 15.8985 29.6246 15.7711 29.6956C15.6437 29.7665 15.5003 29.802 15.341 29.802C15.1384 29.802 14.9816 29.75 14.8708 29.6462C14.7599 29.5423 14.7044 29.4017 14.7044 29.2244C14.7044 29.0344 14.7866 28.8837 14.951 28.7722C15.1154 28.6607 15.3385 28.605 15.6201 28.605H16.077V28.3333C16.077 28.1864 16.0292 28.0711 15.9336 27.9876C15.8393 27.904 15.7067 27.8622 15.536 27.8622C15.4213 27.8622 15.3162 27.878 15.2206 27.9097C15.1263 27.9401 15.0473 27.9819 14.9835 28.035L14.9644 28.3105H14.7752L14.7771 27.9154C14.8727 27.8419 14.9867 27.7824 15.1193 27.7368C15.2531 27.6912 15.3952 27.6684 15.5455 27.6684C15.7737 27.6684 15.9572 27.726 16.0961 27.8413C16.235 27.9565 16.3044 28.1218 16.3044 28.3371V29.3479C16.3044 29.3897 16.3051 29.4302 16.3063 29.4695C16.3089 29.5075 16.3134 29.5448 16.3197 29.5816L16.5262 29.5949V29.7621H16.119ZM15.3659 29.6006C15.5315 29.6006 15.6774 29.5626 15.8036 29.4866C15.9298 29.4106 16.0209 29.3124 16.077 29.1921V28.7798H15.6163C15.4085 28.7798 15.2422 28.8229 15.1173 28.909C14.9937 28.9939 14.9319 29.1015 14.9319 29.232C14.9319 29.3422 14.9702 29.4315 15.0466 29.4999C15.1244 29.567 15.2308 29.6006 15.3659 29.6006Z" fill="white"/>
    <path d="M17.3462 27.7064L17.3749 28.0483V28.073C17.4335 27.9464 17.5132 27.8476 17.6139 27.7767C17.7158 27.7045 17.8362 27.6684 17.9751 27.6684C18.0045 27.6684 18.0325 27.6709 18.0593 27.676C18.0873 27.6798 18.1102 27.6842 18.1281 27.6893L18.0975 27.9021L17.9274 27.8907C17.7833 27.8907 17.6648 27.9312 17.5718 28.0123C17.48 28.092 17.4144 28.2022 17.3749 28.3428V29.5702L17.6865 29.5949V29.7621H16.8358V29.5949L17.1474 29.5702V27.9002L16.8358 27.8755V27.7064H17.1474H17.3462Z" fill="white"/>
    <path d="M19.8542 29.7621C19.8389 29.6924 19.8281 29.6322 19.8217 29.5816C19.8153 29.5309 19.8122 29.4796 19.8122 29.4277C19.7357 29.5353 19.6337 29.6246 19.5063 29.6956C19.3789 29.7665 19.2355 29.802 19.0762 29.802C18.8736 29.802 18.7168 29.75 18.606 29.6462C18.4951 29.5423 18.4397 29.4017 18.4397 29.2244C18.4397 29.0344 18.5219 28.8837 18.6862 28.7722C18.8506 28.6607 19.0737 28.605 19.3553 28.605H19.8122V28.3333C19.8122 28.1864 19.7644 28.0711 19.6688 27.9876C19.5745 27.904 19.442 27.8622 19.2712 27.8622C19.1565 27.8622 19.0514 27.878 18.9558 27.9097C18.8615 27.9401 18.7825 27.9819 18.7187 28.035L18.6996 28.3105H18.5104L18.5123 27.9154C18.6079 27.8419 18.7219 27.7824 18.8545 27.7368C18.9883 27.6912 19.1304 27.6684 19.2807 27.6684C19.5089 27.6684 19.6924 27.726 19.8313 27.8413C19.9702 27.9565 20.0396 28.1218 20.0396 28.3371V29.3479C20.0396 29.3897 20.0403 29.4302 20.0415 29.4695C20.0441 29.5075 20.0486 29.5448 20.0549 29.5816L20.2614 29.5949V29.7621H19.8542ZM19.1011 29.6006C19.2667 29.6006 19.4126 29.5626 19.5388 29.4866C19.665 29.4106 19.7561 29.3124 19.8122 29.1921V28.7798H19.3515C19.1437 28.7798 18.9774 28.8229 18.8526 28.909C18.7289 28.9939 18.6671 29.1015 18.6671 29.232C18.6671 29.3422 18.7054 29.4315 18.7818 29.4999C18.8596 29.567 18.966 29.6006 19.1011 29.6006Z" fill="white"/>
    <path d="M20.5443 29.5949L20.8559 29.5702V27.9002L20.5443 27.8755V27.7064H21.0585L21.0795 28.0654C21.1458 27.9388 21.235 27.8413 21.3472 27.7729C21.4606 27.7032 21.5944 27.6684 21.7486 27.6684C21.9729 27.6684 22.1436 27.7368 22.2609 27.8736C22.3781 28.0091 22.4367 28.2212 22.4367 28.51V29.5702L22.7483 29.5949V29.7621H21.8958V29.5949L22.2074 29.5702V28.5119C22.2074 28.2763 22.1628 28.1098 22.0735 28.0123C21.9856 27.9147 21.8601 27.866 21.697 27.866C21.5364 27.866 21.4051 27.9084 21.3032 27.9933C21.2025 28.0768 21.1299 28.1883 21.0853 28.3276V29.5702L21.3969 29.5949V29.7621H20.5443V29.5949Z" fill="white"/>
    <path d="M23.6353 27.1801V27.7064H24.0903V27.8926H23.6353V29.232C23.6353 29.3662 23.6595 29.4619 23.7079 29.5189C23.7576 29.5746 23.8233 29.6025 23.9048 29.6025C23.9418 29.6025 23.9775 29.6012 24.0119 29.5987C24.0476 29.5949 24.0883 29.5892 24.1342 29.5816L24.1686 29.7507C24.1304 29.7671 24.0839 29.7798 24.0291 29.7887C23.9743 29.7975 23.9195 29.802 23.8647 29.802C23.7194 29.802 23.606 29.7564 23.5244 29.6652C23.4441 29.574 23.404 29.4296 23.404 29.232V27.8926H23.0484V27.7064H23.404V27.1801H23.6353Z" fill="white"/>
    <path d="M24.4974 29.5949L24.809 29.5702V27.9002L24.4974 27.8755V27.7064H25.0365V29.5702L25.3481 29.5949V29.7621H24.4974V29.5949ZM25.0365 27.1174H24.809V26.7982H25.0365V27.1174Z" fill="white"/>
    <path d="M27.2329 28.3409H27.0455L27.0188 28.0502C26.9614 27.9907 26.8888 27.9445 26.8009 27.9116C26.7142 27.8786 26.6142 27.8622 26.5007 27.8622C26.3338 27.8622 26.2083 27.8983 26.1242 27.9705C26.0413 28.0414 25.9999 28.125 25.9999 28.2212C25.9999 28.3162 26.0356 28.3948 26.107 28.4568C26.1796 28.5189 26.3236 28.5734 26.539 28.6202C26.7849 28.6747 26.9691 28.7494 27.0914 28.8444C27.2138 28.9381 27.2749 29.0661 27.2749 29.2282C27.2749 29.3992 27.2048 29.5379 27.0647 29.6443C26.9257 29.7494 26.7416 29.802 26.5122 29.802C26.3593 29.802 26.2197 29.7811 26.0936 29.7393C25.9687 29.6962 25.8604 29.636 25.7686 29.5588V29.1446H25.954L25.9865 29.4372C26.0477 29.498 26.1248 29.5423 26.2178 29.5702C26.3121 29.5968 26.4103 29.6101 26.5122 29.6101C26.6779 29.6101 26.8085 29.574 26.9041 29.5018C26.9997 29.4296 27.0474 29.3422 27.0474 29.2396C27.0474 29.1433 27.0073 29.0591 26.927 28.9869C26.848 28.9147 26.7046 28.8558 26.4969 28.8102C26.251 28.757 26.0681 28.6867 25.9483 28.5993C25.8298 28.5107 25.7705 28.3872 25.7705 28.2288C25.7705 28.0718 25.8374 27.9394 25.9712 27.8318C26.105 27.7228 26.2815 27.6684 26.5007 27.6684C26.6524 27.6684 26.7907 27.6918 26.9156 27.7387C27.0417 27.7843 27.1443 27.8463 27.2233 27.9249L27.2329 28.3409Z" fill="white"/>
    <path d="M11.4458 34.8212L11.7574 34.7965V33.1265L11.4458 33.1018V32.9327H11.9849V34.7965L12.2964 34.8212V34.9884H11.4458V34.8212ZM11.9849 32.3437H11.7574V32.0245H11.9849V32.3437Z" fill="white"/>
    <path d="M12.6386 34.8212L12.9502 34.7965V33.1265L12.6386 33.1018V32.9327H13.1528L13.1739 33.2918C13.2401 33.1651 13.3293 33.0676 13.4415 32.9992C13.5549 32.9295 13.6887 32.8947 13.8429 32.8947C14.0672 32.8947 14.238 32.9631 14.3552 33.0999C14.4725 33.2354 14.5311 33.4476 14.5311 33.7363V34.7965L14.8427 34.8212V34.9884H13.9901V34.8212L14.3017 34.7965V33.7382C14.3017 33.5027 14.2571 33.3361 14.1679 33.2386C14.0799 33.141 13.9544 33.0923 13.7913 33.0923C13.6307 33.0923 13.4995 33.1347 13.3975 33.2196C13.2968 33.3032 13.2242 33.4146 13.1796 33.554V34.7965L13.4912 34.8212V34.9884H12.6386V34.8212Z" fill="white"/>
    <path d="M15.7296 32.4064V32.9327H16.1846V33.1189H15.7296V34.4583C15.7296 34.5926 15.7538 34.6882 15.8023 34.7452C15.852 34.8009 15.9176 34.8288 15.9992 34.8288C16.0361 34.8288 16.0718 34.8275 16.1062 34.825C16.1419 34.8212 16.1827 34.8155 16.2285 34.8079L16.263 34.977C16.2247 34.9934 16.1782 35.0061 16.1234 35.015C16.0686 35.0238 16.0138 35.0283 15.959 35.0283C15.8137 35.0283 15.7003 34.9827 15.6188 34.8915C15.5385 34.8003 15.4983 34.6559 15.4983 34.4583V33.1189H15.1428V32.9327H15.4983V32.4064H15.7296Z" fill="white"/>
    <path d="M17.5189 35.0283C17.2589 35.0283 17.0435 34.9339 16.8727 34.7452C16.702 34.5552 16.6166 34.3139 16.6166 34.0213V33.9168C16.6166 33.623 16.7013 33.3792 16.8708 33.1854C17.0416 32.9916 17.2474 32.8947 17.4883 32.8947C17.7419 32.8947 17.9413 32.9745 18.0866 33.1341C18.2319 33.2937 18.3045 33.5065 18.3045 33.7724V33.9662H16.8441V34.0213C16.8441 34.2518 16.9059 34.4456 17.0295 34.6027C17.1544 34.7585 17.3175 34.8364 17.5189 34.8364C17.6603 34.8364 17.7814 34.8167 17.8821 34.7775C17.9827 34.7382 18.0687 34.6819 18.1401 34.6084L18.2376 34.7642C18.1599 34.8452 18.0617 34.9098 17.9432 34.958C17.8247 35.0048 17.6832 35.0283 17.5189 35.0283ZM17.4883 33.0885C17.3201 33.0885 17.178 33.1531 17.062 33.2823C16.9473 33.4102 16.8804 33.5711 16.8613 33.7648L16.8651 33.7743H18.077V33.7173C18.077 33.5388 18.0241 33.3893 17.9184 33.269C17.8126 33.1486 17.6692 33.0885 17.4883 33.0885Z" fill="white"/>
    <path d="M18.6677 32.1936V32.0245H19.2068V34.7965L19.5184 34.8212V34.9884H18.6677V34.8212L18.9793 34.7965V32.2183L18.6677 32.1936Z" fill="white"/>
    <path d="M20.7915 35.0283C20.5315 35.0283 20.3161 34.9339 20.1453 34.7452C19.9746 34.5552 19.8892 34.3139 19.8892 34.0213V33.9168C19.8892 33.623 19.9739 33.3792 20.1434 33.1854C20.3142 32.9916 20.52 32.8947 20.7609 32.8947C21.0145 32.8947 21.2139 32.9745 21.3592 33.1341C21.5045 33.2937 21.5771 33.5065 21.5771 33.7724V33.9662H20.1167V34.0213C20.1167 34.2518 20.1785 34.4456 20.3021 34.6027C20.427 34.7585 20.5901 34.8364 20.7915 34.8364C20.9329 34.8364 21.054 34.8167 21.1547 34.7775C21.2553 34.7382 21.3414 34.6819 21.4127 34.6084L21.5102 34.7642C21.4325 34.8452 21.3343 34.9098 21.2158 34.958C21.0973 35.0048 20.9559 35.0283 20.7915 35.0283ZM20.7609 33.0885C20.5927 33.0885 20.4506 33.1531 20.3346 33.2823C20.2199 33.4102 20.153 33.5711 20.1339 33.7648L20.1377 33.7743H21.3496V33.7173C21.3496 33.5388 21.2968 33.3893 21.191 33.269C21.0852 33.1486 20.9418 33.0885 20.7609 33.0885Z" fill="white"/>
    <path d="M21.9957 33.9776C21.9957 33.6496 22.0658 33.3874 22.206 33.1911C22.3475 32.9935 22.5431 32.8947 22.7929 32.8947C22.9394 32.8947 23.0662 32.927 23.1733 32.9916C23.2816 33.0549 23.3708 33.1448 23.4409 33.2614L23.4677 32.9327H23.6607V34.9618C23.6607 35.2265 23.5887 35.4355 23.4447 35.5887C23.3007 35.742 23.1 35.8186 22.8426 35.8186C22.7432 35.8186 22.6368 35.8066 22.5233 35.7825C22.4112 35.7585 22.3131 35.7255 22.229 35.6837L22.2901 35.4918C22.373 35.5311 22.4596 35.5615 22.5501 35.583C22.6419 35.6046 22.7381 35.6153 22.8387 35.6153C23.035 35.6153 23.1828 35.5577 23.2822 35.4424C23.3816 35.3272 23.4313 35.167 23.4313 34.9618V34.7015C23.3612 34.8066 23.2727 34.8877 23.1656 34.9447C23.0586 35.0004 22.9331 35.0283 22.789 35.0283C22.5405 35.0283 22.3462 34.9364 22.206 34.7528C22.0658 34.5691 21.9957 34.324 21.9957 34.0175V33.9776ZM22.2251 34.0175C22.2251 34.2645 22.2755 34.4621 22.3762 34.6103C22.4781 34.7572 22.6298 34.8307 22.8311 34.8307C22.9802 34.8307 23.1038 34.7971 23.2019 34.73C23.3013 34.6629 23.3778 34.5704 23.4313 34.4526V33.4989C23.3804 33.3785 23.3071 33.281 23.2115 33.2063C23.1159 33.1303 22.9904 33.0923 22.8349 33.0923C22.6336 33.0923 22.4813 33.1746 22.3781 33.3393C22.2761 33.5039 22.2251 33.7167 22.2251 33.9776V34.0175Z" fill="white"/>
    <path d="M25.0925 35.0283C24.8325 35.0283 24.6171 34.9339 24.4464 34.7452C24.2756 34.5552 24.1902 34.3139 24.1902 34.0213V33.9168C24.1902 33.623 24.275 33.3792 24.4445 33.1854C24.6152 32.9916 24.821 32.8947 25.0619 32.8947C25.3155 32.8947 25.5149 32.9745 25.6602 33.1341C25.8055 33.2937 25.8781 33.5065 25.8781 33.7724V33.9662H24.4177V34.0213C24.4177 34.2518 24.4795 34.4456 24.6031 34.6027C24.728 34.7585 24.8911 34.8364 25.0925 34.8364C25.2339 34.8364 25.355 34.8167 25.4557 34.7775C25.5564 34.7382 25.6424 34.6819 25.7137 34.6084L25.8112 34.7642C25.7335 34.8452 25.6354 34.9098 25.5169 34.958C25.3983 35.0048 25.2569 35.0283 25.0925 35.0283ZM25.0619 33.0885C24.8937 33.0885 24.7516 33.1531 24.6356 33.2823C24.5209 33.4102 24.454 33.5711 24.4349 33.7648L24.4387 33.7743H25.6507V33.7173C25.6507 33.5388 25.5978 33.3893 25.492 33.269C25.3862 33.1486 25.2429 33.0885 25.0619 33.0885Z" fill="white"/>
    <path d="M26.2452 34.8212L26.5568 34.7965V33.1265L26.2452 33.1018V32.9327H26.7594L26.7804 33.2918C26.8467 33.1651 26.9359 33.0676 27.048 32.9992C27.1614 32.9295 27.2953 32.8947 27.4495 32.8947C27.6737 32.8947 27.8445 32.9631 27.9618 33.0999C28.079 33.2354 28.1376 33.4476 28.1376 33.7363V34.7965L28.4492 34.8212V34.9884H27.5966V34.8212L27.9082 34.7965V33.7382C27.9082 33.5027 27.8636 33.3361 27.7744 33.2386C27.6865 33.141 27.561 33.0923 27.3978 33.0923C27.2373 33.0923 27.106 33.1347 27.0041 33.2196C26.9034 33.3032 26.8307 33.4146 26.7861 33.554V34.7965L27.0977 34.8212V34.9884H26.2452V34.8212Z" fill="white"/>
    <path d="M29.3362 32.4064V32.9327H29.7911V33.1189H29.3362V34.4583C29.3362 34.5926 29.3604 34.6882 29.4088 34.7452C29.4585 34.8009 29.5241 34.8288 29.6057 34.8288C29.6427 34.8288 29.6783 34.8275 29.7127 34.825C29.7484 34.8212 29.7892 34.8155 29.8351 34.8079L29.8695 34.977C29.8313 34.9934 29.7848 35.0061 29.73 35.015C29.6752 35.0238 29.6204 35.0283 29.5656 35.0283C29.4203 35.0283 29.3069 34.9827 29.2253 34.8915C29.145 34.8003 29.1049 34.6559 29.1049 34.4583V33.1189H28.7493V32.9327H29.1049V32.4064H29.3362Z" fill="white"/>
    <path d="M11.4458 39.9281L11.7574 39.9034V38.2334L11.4458 38.2087V38.0396H11.9849V39.9034L12.2964 39.9281V40.0953H11.4458V39.9281ZM11.9849 37.4506H11.7574V37.1315H11.9849V37.4506Z" fill="white"/>
    <path d="M12.6386 39.9281L12.9502 39.9034V38.2334L12.6386 38.2087V38.0396H13.1528L13.1739 38.3987C13.2401 38.272 13.3293 38.1745 13.4415 38.1061C13.5549 38.0364 13.6887 38.0016 13.8429 38.0016C14.0672 38.0016 14.238 38.07 14.3552 38.2068C14.4725 38.3423 14.5311 38.5545 14.5311 38.8433V39.9034L14.8427 39.9281V40.0953H13.9901V39.9281L14.3017 39.9034V38.8452C14.3017 38.6096 14.2571 38.443 14.1679 38.3455C14.0799 38.248 13.9544 38.1992 13.7913 38.1992C13.6307 38.1992 13.4995 38.2416 13.3975 38.3265C13.2968 38.4101 13.2242 38.5215 13.1796 38.6609V39.9034L13.4912 39.9281V40.0953H12.6386V39.9281Z" fill="white"/>
    <path d="M15.8042 38.2087L15.5461 38.2277L16.0622 39.5804L16.1291 39.8217H16.1406L16.2133 39.5804L16.7217 38.2277L16.4637 38.2087V38.0396H17.1595V38.2087L16.9569 38.2258L16.2266 40.0953H16.0431L15.311 38.2258L15.1084 38.2087V38.0396H15.8042V38.2087Z" fill="white"/>
    <path d="M18.2988 40.1352C18.0388 40.1352 17.8234 40.0408 17.6527 39.8521C17.4819 39.6621 17.3965 39.4208 17.3965 39.1282V39.0237C17.3965 38.7299 17.4813 38.4861 17.6508 38.2923C17.8215 38.0985 18.0273 38.0016 18.2682 38.0016C18.5218 38.0016 18.7212 38.0814 18.8665 38.241C19.0118 38.4006 19.0844 38.6134 19.0844 38.8794V39.0731H17.624V39.1282C17.624 39.3588 17.6858 39.5526 17.8094 39.7096C17.9343 39.8654 18.0974 39.9433 18.2988 39.9433C18.4402 39.9433 18.5613 39.9237 18.662 39.8844C18.7626 39.8451 18.8487 39.7888 18.92 39.7153L19.0175 39.8711C18.9398 39.9522 18.8417 40.0168 18.7231 40.0649C18.6046 40.1118 18.4632 40.1352 18.2988 40.1352ZM18.2682 38.1954C18.1 38.1954 17.9579 38.26 17.8419 38.3892C17.7272 38.5171 17.6603 38.678 17.6412 38.8718L17.645 38.8813H18.857V38.8243C18.857 38.6457 18.8041 38.4962 18.6983 38.3759C18.5925 38.2556 18.4492 38.1954 18.2682 38.1954Z" fill="white"/>
    <path d="M20.9941 38.6742H20.8068L20.78 38.3835C20.7226 38.324 20.65 38.2777 20.5621 38.2448C20.4754 38.2119 20.3754 38.1954 20.262 38.1954C20.095 38.1954 19.9695 38.2315 19.8854 38.3037C19.8025 38.3746 19.7611 38.4582 19.7611 38.5545C19.7611 38.6495 19.7968 38.728 19.8682 38.7901C19.9408 38.8521 20.0848 38.9066 20.3002 38.9535C20.5461 39.0079 20.7303 39.0826 20.8526 39.1776C20.975 39.2714 21.0361 39.3993 21.0361 39.5614C21.0361 39.7324 20.966 39.8711 20.8259 39.9775C20.687 40.0826 20.5028 40.1352 20.2734 40.1352C20.1205 40.1352 19.981 40.1143 19.8548 40.0725C19.7299 40.0294 19.6216 39.9693 19.5298 39.892V39.4778H19.7152L19.7477 39.7704C19.8089 39.8312 19.886 39.8755 19.979 39.9034C20.0733 39.93 20.1715 39.9433 20.2734 39.9433C20.4391 39.9433 20.5697 39.9072 20.6653 39.835C20.7609 39.7628 20.8087 39.6754 20.8087 39.5728C20.8087 39.4766 20.7685 39.3923 20.6882 39.3201C20.6092 39.2479 20.4659 39.189 20.2581 39.1434C20.0122 39.0902 19.8293 39.0199 19.7095 38.9326C19.591 38.8439 19.5317 38.7204 19.5317 38.5621C19.5317 38.405 19.5986 38.2727 19.7325 38.165C19.8663 38.0561 20.0428 38.0016 20.262 38.0016C20.4136 38.0016 20.5519 38.025 20.6768 38.0719C20.8029 38.1175 20.9055 38.1796 20.9845 38.2581L20.9941 38.6742Z" fill="white"/>
    <path d="M21.9805 37.5133V38.0396H22.4354V38.2258H21.9805V39.5652C21.9805 39.6995 22.0047 39.7951 22.0531 39.8521C22.1028 39.9078 22.1684 39.9357 22.25 39.9357C22.2869 39.9357 22.3226 39.9344 22.357 39.9319C22.3927 39.9281 22.4335 39.9224 22.4794 39.9148L22.5138 40.0839C22.4756 40.1004 22.429 40.113 22.3742 40.1219C22.3194 40.1308 22.2646 40.1352 22.2098 40.1352C22.0646 40.1352 21.9511 40.0896 21.8696 39.9984C21.7893 39.9072 21.7492 39.7628 21.7492 39.5652V38.2258H21.3936V38.0396H21.7492V37.5133H21.9805Z" fill="white"/>
    <path d="M22.8426 39.9281L23.1542 39.9034V38.2334L22.8426 38.2087V38.0396H23.3816V39.9034L23.6932 39.9281V40.0953H22.8426V39.9281ZM23.3816 37.4506H23.1542V37.1315H23.3816V37.4506Z" fill="white"/>
    <path d="M24.0354 39.9281L24.347 39.9034V38.2334L24.0354 38.2087V38.0396H24.5496L24.5706 38.3987C24.6369 38.272 24.7261 38.1745 24.8383 38.1061C24.9517 38.0364 25.0855 38.0016 25.2397 38.0016C25.464 38.0016 25.6347 38.07 25.752 38.2068C25.8692 38.3423 25.9278 38.5545 25.9278 38.8433V39.9034L26.2394 39.9281V40.0953H25.3869V39.9281L25.6985 39.9034V38.8452C25.6985 38.6096 25.6539 38.443 25.5646 38.3455C25.4767 38.248 25.3512 38.1992 25.1881 38.1992C25.0275 38.1992 24.8962 38.2416 24.7943 38.3265C24.6936 38.4101 24.621 38.5215 24.5764 38.6609V39.9034L24.888 39.9281V40.0953H24.0354V39.9281Z" fill="white"/>
    <path d="M26.5912 39.0845C26.5912 38.7565 26.6612 38.4943 26.8014 38.298C26.9429 38.1004 27.1385 38.0016 27.3883 38.0016C27.5348 38.0016 27.6616 38.0339 27.7687 38.0985C27.877 38.1618 27.9662 38.2518 28.0363 38.3683L28.0631 38.0396H28.2561V40.0687C28.2561 40.3334 28.1841 40.5424 28.0401 40.6957C27.8961 40.8489 27.6954 40.9255 27.438 40.9255C27.3386 40.9255 27.2322 40.9135 27.1188 40.8894C27.0066 40.8654 26.9085 40.8324 26.8244 40.7907L26.8855 40.5988C26.9684 40.638 27.055 40.6684 27.1455 40.69C27.2373 40.7115 27.3335 40.7223 27.4342 40.7223C27.6304 40.7223 27.7782 40.6646 27.8776 40.5494C27.977 40.4341 28.0267 40.2739 28.0267 40.0687V39.8084C27.9567 39.9135 27.8681 39.9946 27.761 40.0516C27.654 40.1073 27.5285 40.1352 27.3845 40.1352C27.136 40.1352 26.9416 40.0434 26.8014 39.8597C26.6612 39.676 26.5912 39.431 26.5912 39.1244V39.0845ZM26.8205 39.1244C26.8205 39.3714 26.8709 39.569 26.9716 39.7172C27.0735 39.8641 27.2252 39.9376 27.4265 39.9376C27.5756 39.9376 27.6992 39.904 27.7974 39.8369C27.8968 39.7698 27.9732 39.6773 28.0267 39.5595V38.6058C27.9758 38.4854 27.9025 38.3879 27.8069 38.3132C27.7113 38.2372 27.5858 38.1992 27.4303 38.1992C27.229 38.1992 27.0767 38.2815 26.9735 38.4462C26.8715 38.6108 26.8205 38.8236 26.8205 39.0845V39.1244Z" fill="white"/>
    <defs>
        <linearGradient id="paint0_linear" x1="6.02199" y1="26.1957" x2="39.7216" y2="26.2165" gradientUnits="userSpaceOnUse">
            <stop stop-color="#C60ECA"/>
        </linearGradient>
    </defs>
</svg>