<svg xmlns="http://www.w3.org/2000/svg" width="52" height="52" viewBox="0 0 52 52" fill="none">
    <g clip-path="url(#clip0)">
        <path d="M45.9237 7.79967C45.9237 7.32108 45.5356 6.93304 45.057 6.93304H20.7914C20.3128 6.93304 19.9248 7.32108 19.9248 7.79967V11.2662C19.9248 11.7448 20.3128 12.1328 20.7914 12.1328C21.27 12.1328 21.658 11.7448 21.658 11.2662V8.6663H44.1904V13.8661H25.1246C24.646 13.8661 24.2579 14.2541 24.2579 14.7327C24.2579 15.2113 24.646 15.5993 25.1246 15.5993H45.057C45.5356 15.5993 45.9237 15.2113 45.9237 14.7327V7.79967Z" fill="#6BCB69"/>
        <path d="M35.5241 20.7991C36.0027 20.7991 36.3907 20.411 36.3907 19.9324C36.3907 19.4538 36.0027 19.0658 35.5241 19.0658H30.3244C29.8458 19.0658 29.4577 19.4538 29.4577 19.9324V25.1322C29.4577 25.6108 29.8458 25.9988 30.3244 25.9988H35.5241C36.0027 25.9988 36.3907 25.6108 36.3907 25.1322C36.3907 24.6536 36.0027 24.2656 35.5241 24.2656H31.191V20.7991H35.5241Z" fill="#6BCB69"/>
        <path d="M45.9239 19.9324C45.9239 19.4538 45.5359 19.0658 45.0573 19.0658H39.8575C39.3789 19.0658 38.9908 19.4538 38.9908 19.9324V25.1322C38.9908 25.6108 39.3789 25.9988 39.8575 25.9988H45.0573C45.5359 25.9988 45.9239 25.6108 45.9239 25.1322V19.9324ZM44.1906 24.2656H40.7241V20.7991H44.1906V24.2656Z" fill="#6BCB69"/>
        <path d="M36.3907 29.4654C36.3907 28.9869 36.0027 28.5988 35.5241 28.5988H30.3244C29.8458 28.5988 29.4577 28.9869 29.4577 29.4654V34.6652C29.4577 35.1438 29.8458 35.5319 30.3244 35.5319H35.5241C36.0027 35.5319 36.3907 35.1438 36.3907 34.6652V29.4654ZM34.6575 33.7986H31.191V30.3321H34.6575V33.7986Z" fill="#6BCB69"/>
        <path d="M35.5241 38.1317H30.3244C29.8458 38.1317 29.4577 38.5197 29.4577 38.9983V44.1981C29.4577 44.6767 29.8458 45.0647 30.3244 45.0647H35.5241C36.0027 45.0647 36.3907 44.6767 36.3907 44.1981V38.9983C36.3907 38.5197 36.0027 38.1317 35.5241 38.1317ZM34.6575 43.3315H31.191V39.865H34.6575V43.3315Z" fill="#6BCB69"/>
        <path d="M45.0573 28.5988H39.8575C39.3789 28.5988 38.9908 28.9869 38.9908 29.4654V44.1981C38.9908 44.6767 39.3789 45.0648 39.8575 45.0648H45.0573C45.5359 45.0648 45.9239 44.6767 45.9239 44.1981V29.4654C45.9239 28.9869 45.5359 28.5988 45.0573 28.5988ZM44.1906 43.3315H40.7241V30.3321H44.1906V43.3315Z" fill="#6BCB69"/>
        <path d="M41.5895 12.1328C42.0681 12.1328 42.4561 11.7448 42.4561 11.2662C42.4561 10.7876 42.0681 10.3995 41.5895 10.3995H38.1229C37.6444 10.3995 37.2563 10.7876 37.2563 11.2662C37.2563 11.7448 37.6444 12.1328 38.1229 12.1328H41.5895Z" fill="#6BCB69"/>
        <path d="M34.6573 12.1328C35.1358 12.1328 35.5239 11.7448 35.5239 11.2662C35.5239 10.7876 35.1358 10.3995 34.6573 10.3995H31.1907C30.7121 10.3995 30.3241 10.7876 30.3241 11.2662C30.3241 11.7448 30.7121 12.1328 31.1907 12.1328H34.6573Z" fill="#6BCB69"/>
        <path d="M47.6574 0H18.192C15.7986 0 13.8588 1.94018 13.8588 4.33315V11.2662C13.8588 11.7448 14.2468 12.1328 14.7254 12.1328C15.204 12.1328 15.5921 11.7448 15.5921 11.2662V4.33315C15.5921 2.89737 16.7562 1.73326 18.192 1.73326H47.6574C49.0931 1.73326 50.2572 2.89737 50.2572 4.33315V47.6646C50.2572 49.1004 49.0931 50.2645 47.6574 50.2645H24.2584C23.7798 50.2645 23.3917 50.6525 23.3917 51.1311C23.3917 51.6097 23.7798 51.9978 24.2584 51.9978H47.6574C50.0503 51.9978 51.9905 50.0576 51.9905 47.6646V4.33315C51.9905 1.94018 50.0503 0 47.6574 0Z" fill="#6BCB69"/>
        <path d="M25.1244 19.9324V25.1322C25.1244 25.6108 25.5124 25.9988 25.991 25.9988C26.4696 25.9988 26.8576 25.6108 26.8576 25.1322V19.9324C26.8576 19.4538 26.4696 19.0658 25.991 19.0658C25.5124 19.0658 25.1244 19.4538 25.1244 19.9324Z" fill="#6BCB69"/>
        <path d="M13.8582 33.7985C14.8154 33.7985 15.5915 34.5746 15.5915 35.5318C15.5915 36.0104 15.9795 36.3984 16.4581 36.3984C16.9367 36.3984 17.3247 36.0104 17.3247 35.5318C17.3235 33.9521 16.2546 32.5731 14.7248 32.1778V30.332C14.7248 29.8534 14.3368 29.4654 13.8582 29.4654C13.3796 29.4654 12.9916 29.8534 12.9916 30.332V32.1778C11.3061 32.6184 10.2097 34.2407 10.4293 35.9689C10.6485 37.6967 12.1165 38.9932 13.8582 38.9983C14.8154 38.9983 15.5915 39.7744 15.5915 40.7316C15.5915 41.6888 14.8154 42.4648 13.8582 42.4648C12.901 42.4648 12.1249 41.6888 12.1249 40.7316C12.1249 40.253 11.7369 39.865 11.2583 39.865C10.7797 39.865 10.3917 40.253 10.3917 40.7316C10.3929 42.3112 11.4618 43.6903 12.9916 44.0855V45.9314C12.9916 46.41 13.3796 46.798 13.8582 46.798C14.3368 46.798 14.7248 46.41 14.7248 45.9314V44.0855C16.4099 43.645 17.5067 42.0226 17.2871 40.2945C17.0674 38.5667 15.5999 37.2701 13.8582 37.2651C12.901 37.2651 12.1249 36.489 12.1249 35.5318C12.1249 34.5746 12.901 33.7985 13.8582 33.7985Z" fill="#6BCB69"/>
        <path d="M25.8775 45.0648C26.1166 44.6484 25.9731 44.1169 25.5567 43.8774C25.1403 43.6383 24.6088 43.7817 24.3693 44.1981C21.835 48.5998 16.8265 50.9568 11.8193 50.105C6.81206 49.2528 2.86568 45.3716 1.92965 40.3791C0.994048 35.3867 3.26726 30.3397 7.62622 27.7322H20.0882C23.7456 29.9212 25.9862 33.8693 25.99 38.1317C25.99 38.6103 26.3781 38.9984 26.8567 38.9984C27.3353 38.9984 27.7233 38.6103 27.7233 38.1317C27.7199 33.8553 25.7438 29.8196 22.3674 27.1948C23.1358 26.6036 23.5116 25.6342 23.3423 24.6799C23.1726 23.7253 22.4863 22.9442 21.5617 22.6539C22.1837 21.8833 22.5231 20.9227 22.5235 19.9325V17.3326C22.5214 15.8918 21.6285 14.6024 20.2804 14.0942C18.9322 13.5856 17.4101 13.9643 16.4571 15.0446C15.7991 14.2986 14.8521 13.8712 13.8572 13.8712C12.8624 13.8712 11.9154 14.2986 11.2573 15.0446C10.3044 13.9643 8.78229 13.5856 7.4341 14.0942C6.08592 14.6024 5.19305 15.8918 5.19094 17.3326V19.9325C5.19136 20.9227 5.53073 21.8833 6.15278 22.6539C5.22818 22.9442 4.54139 23.7253 4.37212 24.6799C4.20286 25.6342 4.57863 26.6036 5.34708 27.1948C0.931844 30.6338 -0.98295 36.39 0.491758 41.7882C1.96689 47.1869 6.54251 51.1697 12.0927 51.8861C17.6432 52.6025 23.08 49.912 25.8775 45.0648ZM6.9242 17.3326C6.9242 16.3755 7.70027 15.5994 8.65745 15.5994C9.61464 15.5994 10.3907 16.3755 10.3907 17.3326C10.3907 17.8112 10.7787 18.1993 11.2573 18.1993C11.7359 18.1993 12.124 17.8112 12.124 17.3326C12.124 16.3755 12.9 15.5994 13.8572 15.5994C14.8144 15.5994 15.5905 16.3755 15.5905 17.3326C15.5905 17.8112 15.9785 18.1993 16.4571 18.1993C16.9357 18.1993 17.3237 17.8112 17.3237 17.3326C17.3237 16.3755 18.0998 15.5994 19.057 15.5994C20.0142 15.5994 20.7903 16.3755 20.7903 17.3326V19.9325C20.7903 21.3683 19.6262 22.5324 18.1904 22.5324H9.52408C8.08831 22.5324 6.9242 21.3683 6.9242 19.9325V17.3326ZM6.9242 24.2657H20.7903C21.2689 24.2657 21.6569 24.6537 21.6569 25.1323C21.6569 25.6109 21.2689 25.9989 20.7903 25.9989H6.9242C6.4456 25.9989 6.05757 25.6109 6.05757 25.1323C6.05757 24.6537 6.4456 24.2657 6.9242 24.2657Z" fill="#6BCB69"/>
    </g>
    <defs>
        <clipPath id="clip0">
            <rect width="52" height="52" fill="white"/>
        </clipPath>
    </defs>
</svg>