<svg xmlns="http://www.w3.org/2000/svg" width="54" height="54" viewBox="0 0 54 54" fill="none">
    <path d="M20.7 20.7V27C20.7 27.5401 21.0599 27.9 21.6 27.9C22.1401 27.9 22.5 27.5401 22.5 27V20.7C22.5 20.1599 22.1401 19.8 21.6 19.8C21.0599 19.8 20.7 20.1599 20.7 20.7Z" fill="#6ECB6B"/>
    <path d="M31.5 20.7V27C31.5 27.5401 31.8599 27.9 32.4 27.9C32.9401 27.9 33.3 27.5401 33.3 27V20.7C33.3 20.1599 32.9401 19.8 32.4 19.8C31.8599 19.8 31.5 20.1599 31.5 20.7Z" fill="#6ECB6B"/>
    <path d="M38.7 26.1V27C38.7 27.5401 39.0599 27.9 39.6 27.9C40.1401 27.9 40.5 27.5401 40.5 27V26.1C40.5 25.5599 40.1401 25.2 39.6 25.2C39.0599 25.2 38.7 25.5599 38.7 26.1Z" fill="#6ECB6B"/>
    <path d="M47.7 26.1V27C47.7 27.5401 48.0599 27.9 48.6 27.9C49.1401 27.9 49.5 27.5401 49.5 27V26.1C49.5 25.5599 49.1401 25.2 48.6 25.2C48.0599 25.2 47.7 25.5599 47.7 26.1Z" fill="#6ECB6B"/>
    <path d="M1.79999 27.9C2.34008 27.9 2.69999 27.5401 2.69999 27V19.8C2.69999 17.2802 4.68017 15.3 7.19999 15.3H7.38017C7.01982 16.2901 7.29008 17.3698 8.00991 18.0901L7.19999 24.2099C7.19999 24.3901 7.19999 24.6599 7.38017 24.8401L9.18017 27.5401C9.35991 27.8099 9.63017 27.9901 9.89999 27.9901C10.0802 27.9901 10.2599 27.9 10.4401 27.8099C10.8901 27.5401 10.9802 27 10.7099 26.55L8.99999 24.1198L9.71982 18.9H10.1698L10.8901 24.3901C10.9802 24.9302 11.4302 25.2 11.8802 25.2C12.4198 25.1099 12.6901 24.6599 12.6901 24.2099L11.8802 18.0901C12.6 17.3698 12.8698 16.2901 12.5099 15.3H12.6C15.1198 15.3 17.1 17.2802 17.1 19.8V27C17.1 27.5401 17.4599 27.9 18 27.9C18.5401 27.9 18.9 27.5401 18.9 27V19.8C18.9 17.2802 20.8802 15.3 23.4 15.3H24.4802C24.1198 16.2901 24.3901 17.3698 25.1099 18.0901L24.3 24.2099C24.3 24.3901 24.3 24.6599 24.4802 24.8401L26.2802 27.5401C26.55 27.9901 27.0901 28.0802 27.5401 27.8099L27.8099 27.5401L29.6099 24.8401C29.7 24.6599 29.7901 24.4802 29.7901 24.2099L29.0698 18.0901C29.7901 17.3698 30.0599 16.2901 29.7 15.3H30.6C33.1198 15.3 35.1 17.2802 35.1 19.8V27C35.1 27.5401 35.4599 27.9 36 27.9C36.5401 27.9 36.9 27.5401 36.9 27V19.8C36.9 17.2802 38.8802 15.3 41.4 15.3H41.5802C41.2198 16.2901 41.4901 17.3698 42.2099 18.0901L41.4 24.2099C41.4 24.3901 41.4 24.6599 41.5802 24.8401L43.3802 27.5401C43.5599 27.8099 43.8302 27.9901 44.1 27.9901C44.2802 27.9901 44.4599 27.9 44.55 27.8099C45 27.5401 45.0901 27 44.8198 26.55L43.2 24.1198L43.9198 18.9H44.3698L45.0901 24.3901C45.1802 24.9302 45.6302 25.2 46.0802 25.2C46.6198 25.1099 46.8901 24.6599 46.8901 24.2099L46.1698 18.0901C46.8901 17.3698 47.1599 16.2901 46.8 15.3C49.3198 15.3 51.3 17.2802 51.3 19.8V27C51.3 27.5401 51.6599 27.9 52.2 27.9C52.7401 27.9 53.1 27.5401 53.1 27V19.8C53.1 16.8302 50.9401 14.2198 47.9698 13.5901C48.9599 12.6 49.5 11.25 49.5 9.90002V5.40002C49.5 2.8802 47.5198 0.900024 45 0.900024H37.8C37.2599 0.900024 36.9 1.25994 36.9 1.80002V3.60002C36.9 4.76985 37.6198 5.75993 38.7 6.11985V9.90002C38.7 11.25 39.2401 12.6 40.2302 13.5901C38.5198 13.95 36.9901 15.0302 36 16.5599C34.9198 14.7599 33.0302 13.6802 31.05 13.5C31.95 12.5099 32.4 11.25 32.4 9.90002V9.54011C34.65 8.55002 35.7302 5.85002 34.65 3.60002C33.9302 1.9802 32.4 0.900024 30.6 0.900024H20.5198C19.6198 0.900024 18.9 1.61985 18.9 2.51985V5.40002C18.9 7.20002 19.9802 8.81984 21.6 9.54011V9.90002C21.6 11.25 22.1401 12.5099 22.95 13.5C20.8802 13.6802 18.9901 14.7599 18 16.5599C17.1 15.0302 15.5698 13.95 13.8599 13.5901C14.7599 12.6 15.3 11.25 15.3 9.90002V6.11985C16.7401 5.66985 17.4599 4.05002 16.9198 2.70002C16.5599 1.61985 15.4802 0.900024 14.4 0.900024H2.69999C2.15991 0.900024 1.79999 1.25994 1.79999 1.80002V3.60002C1.79999 5.1302 2.96982 6.30002 4.49999 6.30002V9.90002C4.49999 11.25 5.04008 12.6 5.94008 13.5901C3.05991 14.2198 0.899994 16.8302 0.899994 19.8V27C0.899994 27.5401 1.25991 27.9 1.79999 27.9ZM40.5 9.90002V6.30002H47.7V9.90002C47.7 11.8802 46.0802 13.5 44.1 13.5C42.1198 13.5 40.5 11.8802 40.5 9.90002ZM45 16.2C45 16.4698 44.8198 16.7401 44.6401 16.9198C44.3698 17.1 43.9198 17.1 43.65 16.9198C43.3802 16.7401 43.2 16.4698 43.2 16.2C43.2 15.6599 43.5599 15.3 44.1 15.3C44.6401 15.3 45 15.6599 45 16.2ZM38.7 2.70002H45C46.1698 2.70002 47.1599 3.41985 47.5198 4.50002H39.6C39.0599 4.50002 38.7 4.14011 38.7 3.60002V2.70002ZM23.4 9.90002V6.30002H30.6V9.90002C30.6 11.8802 28.9802 13.5 27 13.5C25.0198 13.5 23.4 11.8802 23.4 9.90002ZM27 25.3802L26.1 24.0302L26.8198 18.8099H27.2698L27.9901 24.0302L27 25.3802ZM27.9 16.2C27.9 16.4698 27.7198 16.7401 27.5401 16.9198C27.2698 17.1 26.8198 17.1 26.55 16.9198C26.2802 16.7401 26.1 16.4698 26.1 16.2C26.1 15.6599 26.4599 15.3 27 15.3C27.5401 15.3 27.9 15.6599 27.9 16.2ZM20.7 5.40002V2.70002H30.6C32.1302 2.70002 33.3 3.86985 33.3 5.40002C33.3 6.11985 32.9401 6.9302 32.4 7.3802V5.40002C32.4 4.85993 32.0401 4.50002 31.5 4.50002H22.5C21.9599 4.50002 21.6 4.85993 21.6 5.40002V7.3802C21.0599 6.9302 20.7 6.11985 20.7 5.40002ZM10.8 16.2C10.8 16.4698 10.6198 16.7401 10.4401 16.9198C10.1698 17.1 9.71982 17.1 9.44999 16.9198C9.18017 16.7401 8.99999 16.4698 8.99999 16.2C8.99999 15.6599 9.35991 15.3 9.89999 15.3C10.4401 15.3 10.8 15.6599 10.8 16.2ZM3.59999 3.60002V2.70002H14.4C14.9401 2.70002 15.3 3.05994 15.3 3.60002C15.3 4.14011 14.9401 4.50002 14.4 4.50002H4.49999C3.95991 4.50002 3.59999 4.14011 3.59999 3.60002ZM13.5 6.30002V9.90002C13.5 11.8802 11.8802 13.5 9.89999 13.5C7.91982 13.5 6.29999 11.8802 6.29999 9.90002V6.30002H13.5Z" fill="#6ECB6B"/>
    <path d="M4.5 26.1V27C4.5 27.5401 4.85991 27.9 5.4 27.9C5.94009 27.9 6.3 27.5401 6.3 27V26.1C6.3 25.5599 5.94009 25.2 5.4 25.2C4.85991 25.2 4.5 25.5599 4.5 26.1Z" fill="#6ECB6B"/>
    <path d="M13.5 26.1V27C13.5 27.5401 13.8599 27.9 14.4 27.9C14.9401 27.9 15.3 27.5401 15.3 27V26.1C15.3 25.5599 14.9401 25.2 14.4 25.2C13.8599 25.2 13.5 25.5599 13.5 26.1Z" fill="#6ECB6B"/>
    <path d="M47.7 35.1C47.7 34.5599 47.3401 34.2 46.8 34.2H7.19999C6.6599 34.2 6.29999 34.5599 6.29999 35.1C6.29999 35.6401 6.6599 36 7.19999 36H46.8C47.3401 36 47.7 35.6401 47.7 35.1Z" fill="#6ECB6B"/>
    <path d="M0.9 31.5H53.1C53.6401 31.5 54 31.1401 54 30.6C54 30.0599 53.6401 29.7 53.1 29.7H0.9C0.359912 29.7 0 30.0599 0 30.6C0 31.1401 0.359912 31.5 0.9 31.5Z" fill="#6ECB6B"/>
    <path d="M42.3 44.1C42.8401 44.1 43.2 43.7401 43.2 43.2V39.6C43.2 39.0599 42.8401 38.7 42.3 38.7H11.7C11.1599 38.7 10.8 39.0599 10.8 39.6V46.8C10.8 47.3401 11.1599 47.7 11.7 47.7H39.6C40.1401 47.7 40.5 47.3401 40.5 46.8C40.5 46.2599 40.1401 45.9 39.6 45.9H12.6V40.5H41.4V43.2C41.4 43.7401 41.7599 44.1 42.3 44.1Z" fill="#6ECB6B"/>
    <path d="M53.1 51.3H0.9C0.359912 51.3 0 51.6599 0 52.2C0 52.7401 0.359912 53.1 0.9 53.1H53.1C53.6401 53.1 54 52.7401 54 52.2C54 51.6599 53.6401 51.3 53.1 51.3Z" fill="#6ECB6B"/>
</svg>