<svg xmlns="http://www.w3.org/2000/svg" width="55" height="55" viewBox="0 0 55 55" fill="none">
    <g clip-path="url(#clip0)">
        <path d="M11.9171 51.3333H4.58378C4.07778 51.3333 3.66711 50.9226 3.66711 50.4166V46.7499C3.66711 46.2439 4.07778 45.8333 4.58378 45.8333H11.9171C12.4231 45.8333 12.8338 46.2439 12.8338 46.7499V50.4166C12.8338 50.9226 12.4231 51.3333 11.9171 51.3333ZM5.50045 49.4999H11.0004V47.6666H5.50045V49.4999Z" fill="#6FCB6C"/>
        <path d="M50.4168 51.3333H43.0834C42.5774 51.3333 42.1668 50.9226 42.1668 50.4166V46.7499C42.1668 46.2439 42.5774 45.8333 43.0834 45.8333H50.4168C50.9228 45.8333 51.3334 46.2439 51.3334 46.7499V50.4166C51.3334 50.9226 50.9228 51.3333 50.4168 51.3333ZM44.0001 49.4999H49.5001V47.6666H44.0001V49.4999Z" fill="#6FCB6C"/>
        <path d="M54.0833 47.6667H0.916667C0.410667 47.6667 0 47.256 0 46.75V4.58335C0 4.07735 0.410667 3.66669 0.916667 3.66669H54.0833C54.5893 3.66669 55 4.07735 55 4.58335V46.75C55 47.256 54.5893 47.6667 54.0833 47.6667ZM1.83333 45.8334H53.1667V5.50002H1.83333V45.8334Z" fill="#6FCB6C"/>
        <path d="M54.0839 16.5H46.7506C46.2446 16.5 45.8339 16.0893 45.8339 15.5833V11.9167C45.8339 11.4107 46.2446 11 46.7506 11H54.0839C54.5899 11 55.0006 11.4107 55.0006 11.9167V15.5833C55.0006 16.0893 54.5899 16.5 54.0839 16.5ZM47.6673 14.6667H53.1672V12.8333H47.6673V14.6667Z" fill="#6FCB6C"/>
        <path d="M54.0839 40.3334H46.7506C46.2446 40.3334 45.8339 39.9227 45.8339 39.4167V35.75C45.8339 35.244 46.2446 34.8334 46.7506 34.8334H54.0839C54.5899 34.8334 55.0006 35.244 55.0006 35.75V39.4167C55.0006 39.9227 54.5899 40.3334 54.0839 40.3334ZM47.6673 38.5H53.1672V36.6667H47.6673V38.5Z" fill="#6FCB6C"/>
        <path d="M49.5032 44H5.4977C4.48845 44 3.66711 43.1787 3.66711 42.1695V9.16396C3.66711 8.15471 4.48845 7.33337 5.4977 7.33337H49.5023C50.5124 7.33337 51.3338 8.15471 51.3338 9.16396V11.9167C51.3338 12.4227 50.9231 12.8334 50.4171 12.8334H47.6671V14.6667H50.4171C50.9231 14.6667 51.3338 15.0774 51.3338 15.5834V35.75C51.3338 36.256 50.9231 36.6667 50.4171 36.6667H47.6671V38.5H50.4171C50.9231 38.5 51.3338 38.9107 51.3338 39.4167V42.1695C51.3338 43.1787 50.5124 44 49.5032 44ZM49.5005 9.16396L5.4977 9.16671L5.50045 42.1695L49.5032 42.1667L49.5014 40.3334H46.7505C46.2444 40.3334 45.8338 39.9227 45.8338 39.4167V35.75C45.8338 35.244 46.2444 34.8334 46.7505 34.8334H49.5005V16.5H46.7505C46.2444 16.5 45.8338 16.0894 45.8338 15.5834V11.9167C45.8338 11.4107 46.2444 11 46.7505 11H49.5005V9.16396Z" fill="#6FCB6C"/>
        <path d="M11.9159 26.5833H8.24922C7.74322 26.5833 7.33255 26.1727 7.33255 25.6667C7.33255 25.1607 7.74322 24.75 8.24922 24.75H11.9159C12.4219 24.75 12.8326 25.1607 12.8326 25.6667C12.8326 26.1727 12.4219 26.5833 11.9159 26.5833Z" fill="#6FCB6C"/>
        <path d="M28.4162 26.5833H24.7496C24.2436 26.5833 23.8329 26.1727 23.8329 25.6667C23.8329 25.1607 24.2436 24.75 24.7496 24.75H28.4162C28.9222 24.75 29.3329 25.1607 29.3329 25.6667C29.3329 26.1727 28.9222 26.5833 28.4162 26.5833Z" fill="#6FCB6C"/>
        <path d="M18.3338 20.1667C17.8278 20.1667 17.4171 19.756 17.4171 19.25V15.5834C17.4171 15.0774 17.8278 14.6667 18.3338 14.6667C18.8398 14.6667 19.2505 15.0774 19.2505 15.5834V19.25C19.2505 19.756 18.8398 20.1667 18.3338 20.1667Z" fill="#6FCB6C"/>
        <path d="M18.3338 36.6667C17.8278 36.6667 17.4171 36.256 17.4171 35.75V32.0834C17.4171 31.5774 17.8278 31.1667 18.3338 31.1667C18.8398 31.1667 19.2505 31.5774 19.2505 32.0834V35.75C19.2505 36.256 18.8398 36.6667 18.3338 36.6667Z" fill="#6FCB6C"/>
        <path d="M44.0006 23.8333H33.0006C32.4946 23.8333 32.0839 23.4227 32.0839 22.9167V17.4167C32.0839 16.9107 32.4946 16.5 33.0006 16.5H44.0006C44.5066 16.5 44.9172 16.9107 44.9172 17.4167V22.9167C44.9172 23.4227 44.5066 23.8333 44.0006 23.8333ZM33.9172 22H43.0839V18.3333H33.9172V22Z" fill="#6FCB6C"/>
        <path d="M18.3334 29.3333C16.3113 29.3333 14.6668 27.6888 14.6668 25.6667C14.6668 23.6445 16.3113 22 18.3334 22C18.8394 22 19.2501 22.4107 19.2501 22.9167C19.2501 23.4227 18.8394 23.8333 18.3334 23.8333C17.3224 23.8333 16.5001 24.6556 16.5001 25.6667C16.5001 26.6778 17.3224 27.5 18.3334 27.5C19.3445 27.5 20.1668 26.6778 20.1668 25.6667C20.1668 25.1607 20.5774 24.75 21.0834 24.75C21.5895 24.75 22.0001 25.1607 22.0001 25.6667C22.0001 27.6888 20.3556 29.3333 18.3334 29.3333Z" fill="#6FCB6C"/>
        <path d="M18.333 33.0001C14.2896 33.0001 10.9997 29.7101 10.9997 25.6667C10.9997 21.6233 14.2896 18.3334 18.333 18.3334C22.3764 18.3334 25.6663 21.6233 25.6663 25.6667C25.6663 29.7101 22.3764 33.0001 18.333 33.0001ZM18.333 20.1667C15.3007 20.1667 12.833 22.6335 12.833 25.6667C12.833 28.7 15.3007 31.1667 18.333 31.1667C21.3653 31.1667 23.833 28.7 23.833 25.6667C23.833 22.6335 21.3653 20.1667 18.333 20.1667Z" fill="#6FCB6C"/>
        <path d="M10.9994 33.9166C10.7647 33.9166 10.53 33.8268 10.3513 33.6481C9.99285 33.2896 9.99285 32.7103 10.3513 32.3519L13.1471 29.556C13.5046 29.1976 14.0858 29.1976 14.4433 29.556C14.8017 29.9145 14.8017 30.4938 14.4433 30.8522L11.6474 33.6481C11.4687 33.8268 11.234 33.9166 10.9994 33.9166Z" fill="#6FCB6C"/>
        <path d="M22.8709 22.0458C22.6363 22.0458 22.4016 21.956 22.2229 21.7773C21.8644 21.4188 21.8644 20.8395 22.2229 20.4811L25.0187 17.6853C25.3762 17.3268 25.9574 17.3268 26.3149 17.6853C26.6733 18.0437 26.6733 18.623 26.3149 18.9814L23.519 21.7773C23.3403 21.9569 23.1056 22.0458 22.8709 22.0458Z" fill="#6FCB6C"/>
        <path d="M13.7952 22.0458C13.5605 22.0458 13.3259 21.956 13.1471 21.7773L10.3513 18.9814C9.99285 18.623 9.99285 18.0437 10.3513 17.6853C10.7088 17.3268 11.2899 17.3268 11.6474 17.6853L14.4433 20.4811C14.8017 20.8395 14.8017 21.4188 14.4433 21.7773C14.2645 21.9569 14.0299 22.0458 13.7952 22.0458Z" fill="#6FCB6C"/>
        <path d="M25.6668 33.9166C25.4321 33.9166 25.1974 33.8268 25.0187 33.6481L22.2229 30.8522C21.8644 30.4938 21.8644 29.9145 22.2229 29.556C22.5804 29.1976 23.1615 29.1976 23.519 29.556L26.3149 32.3519C26.6733 32.7103 26.6733 33.2896 26.3149 33.6481C26.1361 33.8268 25.9014 33.9166 25.6668 33.9166Z" fill="#6FCB6C"/>
        <path d="M33.9172 27.5H33.0006C32.4946 27.5 32.0839 27.0893 32.0839 26.5833C32.0839 26.0773 32.4946 25.6666 33.0006 25.6666H33.9172C34.4232 25.6666 34.8339 26.0773 34.8339 26.5833C34.8339 27.0893 34.4232 27.5 33.9172 27.5Z" fill="#6FCB6C"/>
        <path d="M44.0001 27.5H43.0834C42.5774 27.5 42.1668 27.0893 42.1668 26.5833C42.1668 26.0773 42.5774 25.6666 43.0834 25.6666H44.0001C44.5061 25.6666 44.9168 26.0773 44.9168 26.5833C44.9168 27.0893 44.5061 27.5 44.0001 27.5Z" fill="#6FCB6C"/>
        <path d="M39.4161 27.5H37.5828C37.0768 27.5 36.6661 27.0893 36.6661 26.5833C36.6661 26.0773 37.0768 25.6666 37.5828 25.6666H39.4161C39.9221 25.6666 40.3328 26.0773 40.3328 26.5833C40.3328 27.0893 39.9221 27.5 39.4161 27.5Z" fill="#6FCB6C"/>
        <path d="M33.9172 31.1667H33.0006C32.4946 31.1667 32.0839 30.756 32.0839 30.25C32.0839 29.744 32.4946 29.3334 33.0006 29.3334H33.9172C34.4232 29.3334 34.8339 29.744 34.8339 30.25C34.8339 30.756 34.4232 31.1667 33.9172 31.1667Z" fill="#6FCB6C"/>
        <path d="M44.0001 31.1667H43.0834C42.5774 31.1667 42.1668 30.756 42.1668 30.25C42.1668 29.744 42.5774 29.3334 43.0834 29.3334H44.0001C44.5061 29.3334 44.9168 29.744 44.9168 30.25C44.9168 30.756 44.5061 31.1667 44.0001 31.1667Z" fill="#6FCB6C"/>
        <path d="M39.4161 31.1667H37.5828C37.0768 31.1667 36.6661 30.756 36.6661 30.25C36.6661 29.744 37.0768 29.3334 37.5828 29.3334H39.4161C39.9221 29.3334 40.3328 29.744 40.3328 30.25C40.3328 30.756 39.9221 31.1667 39.4161 31.1667Z" fill="#6FCB6C"/>
        <path d="M33.9172 34.8334H33.0006C32.4946 34.8334 32.0839 34.4227 32.0839 33.9167C32.0839 33.4107 32.4946 33.0001 33.0006 33.0001H33.9172C34.4232 33.0001 34.8339 33.4107 34.8339 33.9167C34.8339 34.4227 34.4232 34.8334 33.9172 34.8334Z" fill="#6FCB6C"/>
        <path d="M44.0001 34.8334H43.0834C42.5774 34.8334 42.1668 34.4227 42.1668 33.9167C42.1668 33.4107 42.5774 33.0001 43.0834 33.0001H44.0001C44.5061 33.0001 44.9168 33.4107 44.9168 33.9167C44.9168 34.4227 44.5061 34.8334 44.0001 34.8334Z" fill="#6FCB6C"/>
        <path d="M39.4161 34.8334H37.5828C37.0768 34.8334 36.6661 34.4227 36.6661 33.9167C36.6661 33.4107 37.0768 33.0001 37.5828 33.0001H39.4161C39.9221 33.0001 40.3328 33.4107 40.3328 33.9167C40.3328 34.4227 39.9221 34.8334 39.4161 34.8334Z" fill="#6FCB6C"/>
    </g>
    <defs>
        <clipPath id="clip0">
            <rect width="55" height="55" fill="white"/>
        </clipPath>
    </defs>
</svg>