<svg xmlns="http://www.w3.org/2000/svg" width="57" height="57" viewBox="0 0 57 57" fill="none">
    <path d="M31.3464 7.60653C31.871 7.60653 32.2963 7.18122 32.2963 6.65666C32.2963 6.1321 31.871 5.70679 31.3464 5.70679H10.4492C9.92468 5.70679 9.49937 6.1321 9.49937 6.65666V10.4561C9.49937 10.9807 9.92468 11.406 10.4492 11.406H31.3464C31.871 11.406 32.2963 10.9807 32.2963 10.4561C32.2963 9.93159 31.871 9.50628 31.3464 9.50628H11.3991V7.60653H31.3464Z" fill="#70CB6D"/>
    <path d="M35.1451 13.3057H13.2981C12.7735 13.3057 12.3482 13.731 12.3482 14.2556C12.3482 14.7802 12.7735 15.2055 13.2981 15.2055H35.1451C35.6697 15.2055 36.095 14.7802 36.095 14.2556C36.095 13.731 35.6697 13.3057 35.1451 13.3057Z" fill="#70CB6D"/>
    <path d="M35.145 18.0551H6.64879C6.12422 18.0551 5.69891 18.4804 5.69891 19.005C5.69891 19.5296 6.12422 19.9549 6.64879 19.9549H35.145C35.6695 19.9549 36.0948 19.5296 36.0948 19.005C36.0948 18.4804 35.6695 18.0551 35.145 18.0551Z" fill="#70CB6D"/>
    <path d="M6.64879 24.7042H20.8969C21.4214 24.7042 21.8467 24.2789 21.8467 23.7543C21.8467 23.2298 21.4214 22.8044 20.8969 22.8044H6.64879C6.12422 22.8044 5.69891 23.2298 5.69891 23.7543C5.69891 24.2789 6.12422 24.7042 6.64879 24.7042Z" fill="#70CB6D"/>
    <path d="M25.6462 22.8044C25.1217 22.8044 24.6964 23.2298 24.6964 23.7543C24.6964 24.2789 25.1217 24.7042 25.6462 24.7042H27.546C28.0706 24.7042 28.4959 24.2789 28.4959 23.7543C28.4959 23.2298 28.0706 22.8044 27.546 22.8044H25.6462Z" fill="#70CB6D"/>
    <path d="M35.1452 22.8044H32.2955C31.771 22.8044 31.3457 23.2298 31.3457 23.7543C31.3457 24.2789 31.771 24.7042 32.2955 24.7042H35.1452C35.6697 24.7042 36.095 24.2789 36.095 23.7543C36.095 23.2298 35.6697 22.8044 35.1452 22.8044Z" fill="#70CB6D"/>
    <path d="M22.7966 28.5037C22.7966 27.9791 22.3713 27.5538 21.8467 27.5538H6.64879C6.12422 27.5538 5.69891 27.9791 5.69891 28.5037C5.69891 29.0283 6.12422 29.4536 6.64879 29.4536H21.8467C22.3713 29.4536 22.7966 29.0283 22.7966 28.5037Z" fill="#70CB6D"/>
    <path d="M9.4984 32.3032H6.64879C6.12422 32.3032 5.69891 32.7285 5.69891 33.253C5.69891 33.7776 6.12422 34.2029 6.64879 34.2029H9.4984C10.023 34.2029 10.4483 33.7776 10.4483 33.253C10.4483 32.7285 10.023 32.3032 9.4984 32.3032Z" fill="#70CB6D"/>
    <path d="M9.4984 37.0526H6.64879C6.12422 37.0526 5.69891 37.4779 5.69891 38.0024C5.69891 38.527 6.12422 38.9523 6.64879 38.9523H9.4984C10.023 38.9523 10.4483 38.527 10.4483 38.0024C10.4483 37.4779 10.023 37.0526 9.4984 37.0526Z" fill="#70CB6D"/>
    <path d="M43.6938 15.2055C43.6938 15.7301 44.1191 16.1554 44.6437 16.1554H45.5936C46.1181 16.1554 46.5434 15.7301 46.5434 15.2055V11.406C46.5434 10.8815 46.1181 10.4562 45.5936 10.4562H44.6437C44.1191 10.4562 43.6938 10.8815 43.6938 11.406C43.6938 11.9306 44.1191 12.3559 44.6437 12.3559V14.2557C44.1191 14.2557 43.6938 14.681 43.6938 15.2055Z" fill="#70CB6D"/>
    <path d="M43.969 20.6293C44.0613 20.7132 44.1675 20.7809 44.2825 20.8287C44.5121 20.9307 44.7746 20.9307 45.0042 20.8287C45.2431 20.7424 45.4309 20.5546 45.5172 20.3157C45.6187 20.0861 45.6187 19.8241 45.5172 19.5941C45.4722 19.4776 45.4045 19.371 45.3177 19.2805C45.1396 19.1006 44.8966 18.9995 44.6434 18.9995C44.3901 18.9995 44.1471 19.1006 43.969 19.2805C43.8823 19.371 43.8145 19.4776 43.7696 19.5941C43.7209 19.7081 43.6949 19.8311 43.6935 19.9549C43.6902 20.0797 43.7162 20.203 43.7696 20.3157C43.8178 20.4312 43.885 20.537 43.969 20.6293Z" fill="#70CB6D"/>
    <path d="M43.969 25.3786C44.0613 25.4626 44.1675 25.5303 44.2825 25.5781C44.6359 25.727 45.0445 25.6481 45.3177 25.3786C45.4017 25.2863 45.4689 25.1806 45.5172 25.0651C45.5659 24.951 45.5918 24.8286 45.5932 24.7043C45.5946 24.452 45.4954 24.2094 45.3177 24.0299L45.1753 23.9158C45.1225 23.8801 45.065 23.8513 45.0042 23.8304C44.9476 23.8017 44.8869 23.7822 44.8238 23.7734C44.514 23.7113 44.1935 23.8077 43.969 24.0299C43.7955 24.2122 43.6972 24.4529 43.6935 24.7043C43.6902 24.829 43.7162 24.9524 43.7696 25.0651C43.8178 25.1806 43.885 25.2863 43.969 25.3786Z" fill="#70CB6D"/>
    <path d="M44.6437 7.60653H48.4432C48.9678 7.60653 49.3931 8.03184 49.3931 8.5564V29.5106C49.3931 30.0352 49.8184 30.4605 50.343 30.4605C50.8675 30.4605 51.2928 30.0352 51.2928 29.5106V8.5564C51.2928 6.98271 50.0169 5.70679 48.4432 5.70679H44.6437C44.1191 5.70679 43.6938 6.1321 43.6938 6.65666C43.6938 7.18122 44.1191 7.60653 44.6437 7.60653Z" fill="#70CB6D"/>
    <path d="M14.2481 47.5017H2.84961C2.32505 47.5017 1.89974 47.0764 1.89974 46.5518V2.85767C1.89974 2.33311 2.32505 1.9078 2.84961 1.9078H38.9448C39.4693 1.9078 39.8946 2.33311 39.8946 2.85767V27.8966C39.8946 28.4212 40.3199 28.8465 40.8445 28.8465C41.3691 28.8465 41.7944 28.4212 41.7944 27.8966V2.85767C41.7944 1.28398 40.5184 0.00805664 38.9448 0.00805664H2.84961C1.27592 0.00805664 -7.62939e-06 1.28398 -7.62939e-06 2.85767V46.5518C-7.62939e-06 48.1255 1.27592 49.4014 2.84961 49.4014H14.2481C14.7726 49.4014 15.1979 48.9761 15.1979 48.4515C15.1979 47.927 14.7726 47.5017 14.2481 47.5017Z" fill="#70CB6D"/>
    <path d="M47.4933 46.5513C47.4933 44.453 45.7921 42.7518 43.6938 42.7518C42.6447 42.7518 41.7941 41.9012 41.7941 40.852C41.7941 39.8029 42.6447 38.9523 43.6938 38.9523C44.7429 38.9523 45.5935 39.8029 45.5935 40.852C45.5935 41.3766 46.0189 41.8019 46.5434 41.8019C47.068 41.8019 47.4933 41.3766 47.4933 40.852C47.4919 39.1207 46.3203 37.6091 44.6437 37.1759V35.1528C44.6437 34.6283 44.2184 34.2029 43.6938 34.2029C43.1692 34.2029 42.7439 34.6283 42.7439 35.1528V37.1759C40.8971 37.6588 39.6949 39.4374 39.9356 41.3312C40.1763 43.2249 41.7848 44.6464 43.6938 44.6515C44.7429 44.6515 45.5935 45.5021 45.5935 46.5513C45.5935 47.6004 44.7429 48.451 43.6938 48.451C42.6447 48.451 41.7941 47.6004 41.7941 46.5513C41.7941 46.0267 41.3688 45.6014 40.8442 45.6014C40.3196 45.6014 39.8943 46.0267 39.8943 46.5513C39.8957 48.2831 41.0673 49.7947 42.7439 50.2274V52.2505C42.7439 52.7751 43.1692 53.2004 43.6938 53.2004C44.2184 53.2004 44.6437 52.7751 44.6437 52.2505V50.2274C46.3203 49.7947 47.4919 48.2831 47.4933 46.5513Z" fill="#70CB6D"/>
    <path d="M43.694 30.4034C39.3458 30.4062 35.2741 32.5346 32.7895 36.1027H28.496V34.2029H31.3456C31.8702 34.2029 32.2955 33.7776 32.2955 33.2531C32.2955 32.7285 31.8702 32.3032 31.3456 32.3032H13.2981C12.7735 32.3032 12.3482 32.7285 12.3482 33.2531V44.6515C12.3482 45.1761 12.7735 45.6014 13.2981 45.6014H17.0975V56.05C17.0975 56.5746 17.5229 56.9999 18.0474 56.9999H34.1953C34.7198 56.9999 35.1451 56.5746 35.1451 56.05C35.1451 55.5254 34.7198 55.1001 34.1953 55.1001H33.2454V51.918C37.0866 56.8069 43.8025 58.3811 49.4164 55.7096C55.0303 53.0376 58.0436 46.8328 56.6722 40.7686C55.3012 34.7048 49.9113 30.4002 43.694 30.4034ZM28.496 41.8019H30.5289C30.4408 42.4313 30.3967 43.0662 30.3958 43.7017H28.496V41.8019ZM31.6782 38.0024C31.3892 38.6174 31.1448 39.2524 30.9468 39.9022H28.496V38.0024H31.6782ZM26.5963 34.2029V43.7017H22.7968V34.2029H26.5963ZM18.9973 49.4009H25.6464V51.3006H18.9973V49.4009ZM14.2479 38.0024H20.897V39.9022H14.2479V38.0024ZM20.897 34.2029V36.1027H14.2479V34.2029H20.897ZM14.2479 41.8019H20.897V43.7017H14.2479V41.8019ZM25.6464 45.6014V47.5011H18.9973V45.6014H25.6464ZM18.9973 53.2004H25.6464V55.1001H18.9973V53.2004ZM31.3456 55.1001H27.5461V45.6014H30.5289C30.6787 46.6436 30.9528 47.6644 31.3456 48.6412V55.1001ZM43.694 55.1001C37.7754 55.1238 32.8233 50.6133 32.2955 44.7183V44.6515C32.3006 44.582 32.3006 44.5124 32.2955 44.4428C32.2955 44.1956 32.2955 43.9489 32.2955 43.7017C32.295 42.8612 32.3873 42.0236 32.571 41.2036C32.6076 41.1192 32.6299 41.0292 32.6373 40.9378C32.9277 39.7709 33.4021 38.6582 34.0431 37.6416C34.0835 37.5915 34.1183 37.5372 34.1479 37.4802C37.1256 32.9094 42.9241 31.0889 47.98 33.138C53.0355 35.1871 55.9305 40.5306 54.8861 45.8848C53.8411 51.2389 49.1493 55.1024 43.694 55.1001Z" fill="#70CB6D"/>
    <path d="M47.9207 35.2006C47.6939 35.0855 47.4309 35.0661 47.1902 35.1463C46.949 35.2265 46.7505 35.4 46.6383 35.6277C46.405 36.0976 46.5965 36.6671 47.0654 36.9009C49.6447 38.1861 51.2749 40.82 51.2749 43.7016C51.2749 46.5837 49.6447 49.2172 47.0654 50.5029C46.6758 50.7023 46.4732 51.1424 46.5747 51.5682C46.6758 51.994 47.0552 52.2955 47.4931 52.2982C47.641 52.3001 47.7876 52.2676 47.9207 52.2032C51.1446 50.5961 53.1821 47.304 53.1821 43.7016C53.1821 40.0997 51.1446 36.8072 47.9207 35.2006Z" fill="#70CB6D"/>
    <path d="M40.3224 50.5029C37.7432 49.2172 36.1129 46.5837 36.1129 43.7016C36.1129 40.82 37.7432 38.1861 40.3224 36.9009C40.7918 36.6648 40.981 36.0925 40.7449 35.6231C40.5089 35.1537 39.937 34.9645 39.4672 35.2006C36.2432 36.8072 34.2057 40.0997 34.2057 43.7016C34.2057 47.304 36.2432 50.5961 39.4672 52.2032C39.6003 52.2677 39.7468 52.3001 39.8948 52.2983C40.3326 52.2955 40.712 51.994 40.8131 51.5682C40.9147 51.1425 40.712 50.7023 40.3224 50.5029Z" fill="#70CB6D"/>
</svg>