<svg xmlns="http://www.w3.org/2000/svg" width="56" height="56" viewBox="0 0 56 56" fill="none">
    <path d="M55.8966 13.2793C55.7039 12.5625 55.2337 11.9515 54.5903 11.581C53.9464 11.2088 53.181 11.1081 52.4628 11.3008C51.7457 11.494 51.1346 11.9638 50.7642 12.6072L50.2976 13.4191C49.8542 13.1644 49.2879 13.3143 49.0286 13.7554L46.6583 17.7957L45.8463 17.3291C45.6313 17.2047 45.3752 17.171 45.1355 17.2357C44.8954 17.3008 44.6913 17.4585 44.5678 17.6745C44.3149 18.1206 44.4689 18.6874 44.9132 18.9435L45.7251 19.41L37.7931 33.1557L35.8334 38.3911L34.9002 40.1358C34.3539 41.0863 34.4122 42.2678 35.0497 43.1595L32.95 45.7349L32.3622 44.2608C32.097 43.6038 31.4833 43.1536 30.7775 43.0985C30.0712 43.0429 29.3946 43.3919 29.0305 43.9993L28.6947 44.5684L28.3776 40.8357C28.3047 39.9526 27.6207 39.2427 26.7413 39.1361C25.8615 39.0299 25.0285 39.5571 24.7474 40.3974L22.4518 47.2841C22.2914 47.7712 22.5539 48.2961 23.0396 48.4601C23.1307 48.5025 23.2287 48.528 23.3289 48.5344C23.7299 48.5357 24.0871 48.2801 24.2156 47.9001L26.5016 41.0134L26.8283 44.8017C26.8958 45.61 27.4767 46.2821 28.2668 46.4653C29.0569 46.6484 29.8744 46.3003 30.2904 45.6045L30.6358 45.035L31.2144 46.5004C31.46 47.1178 32.0155 47.5584 32.673 47.6563C33.3305 47.7543 33.9903 47.495 34.4058 46.9761L36.5802 44.2235C36.8208 44.2863 37.0687 44.3178 37.3174 44.3169C38.3176 44.3246 39.2462 43.7979 39.7529 42.9353L40.6861 41.377L44.2415 37.0565L52.2573 23.1427L53.0693 23.6093C53.2858 23.7333 53.4434 23.9379 53.5077 24.1789C53.5724 24.4181 53.5386 24.6733 53.4147 24.8879L49.682 31.355C49.5412 31.5673 49.4934 31.8279 49.5499 32.0767C49.6064 32.325 49.7617 32.5396 49.9805 32.6704C50.1955 32.7953 50.4516 32.829 50.6913 32.7643C50.9314 32.6991 51.1355 32.5415 51.259 32.3255L54.9917 25.8584C55.364 25.2146 55.4647 24.4491 55.2715 23.731C55.0783 23.0138 54.6085 22.4028 53.9651 22.0323L53.1532 21.5657L55.4861 17.525C55.7408 17.0817 55.5909 16.5157 55.1503 16.256L55.6169 15.4441C55.9992 14.7902 56.1003 14.0092 55.8966 13.2793ZM52.3786 13.5403C52.502 13.3244 52.7071 13.1663 52.9481 13.102C53.1878 13.0428 53.4411 13.076 53.6571 13.1954C53.8735 13.3189 54.0312 13.5239 54.0959 13.7645C54.1551 14.0042 54.1219 14.2575 54.0025 14.4735L53.5359 15.2855L51.912 14.3523L52.3786 13.5403ZM39.6595 39.595L39.1929 39.3243L37.8118 38.5214L39.1369 34.9756L42.0763 36.6738L39.6595 39.595ZM36.86 42.2915C36.4658 42.0167 36.3446 41.4882 36.5802 41.069L37.0468 40.2575L38.6703 41.1906L38.2037 41.993C38.0729 42.22 37.8533 42.3813 37.5977 42.4382C37.3421 42.4947 37.0746 42.4419 36.86 42.2915ZM43.1402 35.1437L39.9115 33.2773L47.3769 20.3432L50.6056 22.2096L43.1402 35.1437ZM51.5388 20.5952L48.31 18.7288L50.1764 15.5001L53.4051 17.3664L51.5388 20.5952Z" fill="#68CA65"/>
    <path d="M14.7259 41.8249L11.4228 45.1193L9.4444 43.1408C9.08034 42.779 8.49255 42.779 8.12848 43.1408C7.95169 43.3162 7.85236 43.5546 7.85236 43.8033C7.85236 44.0521 7.95169 44.2909 8.12848 44.4659L10.1069 46.4443C10.4569 46.7915 10.9298 46.9861 11.4228 46.9856C11.9186 46.9883 12.3957 46.7938 12.7479 46.4443L16.0418 43.1408C16.3589 42.7704 16.3375 42.2186 15.993 41.8741C15.6481 41.5292 15.0963 41.5078 14.7259 41.8249Z" fill="#68CA65"/>
    <path d="M3.73279 44.3352C3.73279 48.7163 7.28414 52.2672 11.6648 52.2672C16.0454 52.2672 19.5968 48.7163 19.5968 44.3352C19.5968 43.8198 19.1789 43.402 18.6636 43.402C18.1482 43.402 17.7304 43.8198 17.7304 44.3352C17.7304 47.6851 15.0147 50.4008 11.6648 50.4008C8.31482 50.4008 5.59914 47.6851 5.59914 44.3352C5.59914 40.9852 8.31482 38.2695 11.6648 38.2695C12.978 38.2659 14.2561 38.6919 15.3041 39.4829C15.7164 39.7923 16.3015 39.7085 16.6104 39.2961C16.9198 38.8838 16.8364 38.2992 16.4241 37.9898C14.0205 36.1872 10.8045 35.8974 8.11752 37.2407C5.43009 38.5844 3.73279 41.3311 3.73279 44.3352Z" fill="#68CA65"/>
    <path d="M33.5941 7.47475C34.1095 7.47475 34.5273 7.05737 34.5273 6.54157C34.5273 6.02623 34.1095 5.6084 33.5941 5.6084H9.33161C8.81627 5.6084 8.39844 6.02623 8.39844 6.54157V10.2743C8.39844 10.7901 8.81627 11.2074 9.33161 11.2074H33.5941C34.1095 11.2074 34.5273 10.7901 34.5273 10.2743C34.5273 9.75893 34.1095 9.3411 33.5941 9.3411H10.2648V7.47475H33.5941Z" fill="#68CA65"/>
    <path d="M12.1311 13.0738C11.6158 13.0738 11.1979 13.4916 11.1979 14.007C11.1979 14.5228 11.6158 14.9401 12.1311 14.9401H30.7946C31.3099 14.9401 31.7278 14.5228 31.7278 14.007C31.7278 13.4916 31.3099 13.0738 30.7946 13.0738H12.1311Z" fill="#68CA65"/>
    <path d="M36.3937 19.606H15.8639C15.3486 19.606 14.9307 20.0238 14.9307 20.5392C14.9307 21.055 15.3486 21.4724 15.8639 21.4724H36.3937C36.9091 21.4724 37.3269 21.055 37.3269 20.5392C37.3269 20.0238 36.9091 19.606 36.3937 19.606Z" fill="#68CA65"/>
    <path d="M27.0621 26.1382C27.0621 25.6228 26.6443 25.205 26.1289 25.205H7.46546C6.95012 25.205 6.53229 25.6228 6.53229 26.1382C6.53229 26.654 6.95012 27.0714 7.46546 27.0714H26.1289C26.6443 27.0714 27.0621 26.654 27.0621 26.1382Z" fill="#68CA65"/>
    <path d="M36.394 25.205H29.8618C29.3465 25.205 28.9286 25.6228 28.9286 26.1382C28.9286 26.654 29.3465 27.0714 29.8618 27.0714H36.394C36.9094 27.0714 37.3272 26.654 37.3272 26.1382C37.3272 25.6228 36.9094 25.205 36.394 25.205Z" fill="#68CA65"/>
    <path d="M16.7972 31.7373C17.3125 31.7373 17.7304 31.3199 17.7304 30.8041C17.7304 30.2887 17.3125 29.8709 16.7972 29.8709H7.46546C6.95012 29.8709 6.53229 30.2887 6.53229 30.8041C6.53229 31.3199 6.95012 31.7373 7.46546 31.7373H16.7972Z" fill="#68CA65"/>
    <path d="M20.53 31.7373H27.0623C27.5776 31.7373 27.9954 31.3199 27.9954 30.8041C27.9954 30.2887 27.5776 29.8709 27.0623 29.8709H20.53C20.0147 29.8709 19.5969 30.2887 19.5969 30.8041C19.5969 31.3199 20.0147 31.7373 20.53 31.7373Z" fill="#68CA65"/>
    <path d="M41.9928 42.9354C41.4775 42.9354 41.0597 43.3532 41.0597 43.8685V53.2003C41.0597 53.7161 40.6418 54.1334 40.1265 54.1334H2.79952C2.28418 54.1334 1.86635 53.7161 1.86635 53.2003V2.80886C1.86635 2.29352 2.28418 1.87569 2.79952 1.87569H40.1265C40.6418 1.87569 41.0597 2.29352 41.0597 2.80886V20.3341C41.0597 20.8495 41.4775 21.2673 41.9928 21.2673C42.5082 21.2673 42.926 20.8495 42.926 20.3341V2.80886C42.926 1.26284 41.6725 0.00933838 40.1265 0.00933838H2.79952C1.2535 0.00933838 0 1.26284 0 2.80886V53.2003C0 54.7468 1.2535 55.9998 2.79952 55.9998H40.1265C41.6725 55.9998 42.926 54.7468 42.926 53.2003V43.8685C42.926 43.3532 42.5082 42.9354 41.9928 42.9354Z" fill="#68CA65"/>
</svg>