<svg xmlns="http://www.w3.org/2000/svg" width="108" height="20" viewBox="0 0 108 20" fill="none">
    <g clip-path="url(#clip0)">
        <path d="M10.201 0.758026L12.679 6.62303L19.023 7.16803C19.463 7.20603 19.642 7.75503 19.308 8.04403L14.496 12.213L15.938 18.415C16.038 18.846 15.571 19.185 15.193 18.956L9.74101 15.668L4.28901 18.956C3.91001 19.184 3.44401 18.845 3.54401 18.415L4.98601 12.213L0.173007 8.04303C-0.160993 7.75403 0.0170071 7.20503 0.458007 7.16703L6.80201 6.62203L9.28001 0.758026C9.45201 0.350026 10.029 0.350026 10.201 0.758026Z" fill="#F4C179"/>
    </g>
    <g clip-path="url(#clip1)">
        <path d="M32.201 0.758026L34.679 6.62303L41.023 7.16803C41.463 7.20603 41.642 7.75503 41.308 8.04403L36.496 12.213L37.938 18.415C38.038 18.846 37.571 19.185 37.193 18.956L31.741 15.668L26.289 18.956C25.91 19.184 25.444 18.845 25.544 18.415L26.986 12.213L22.173 8.04303C21.839 7.75403 22.017 7.20503 22.458 7.16703L28.802 6.62203L31.28 0.758026C31.452 0.350026 32.029 0.350026 32.201 0.758026Z" fill="#F4C179"/>
    </g>
    <g clip-path="url(#clip2)">
        <path d="M54.201 0.758026L56.679 6.62303L63.023 7.16803C63.463 7.20603 63.642 7.75503 63.308 8.04403L58.496 12.213L59.938 18.415C60.038 18.846 59.571 19.185 59.193 18.956L53.741 15.668L48.289 18.956C47.91 19.184 47.444 18.845 47.544 18.415L48.986 12.213L44.173 8.04303C43.839 7.75403 44.017 7.20503 44.458 7.16703L50.802 6.62203L53.28 0.758026C53.452 0.350026 54.029 0.350026 54.201 0.758026Z" fill="#F4C179"/>
    </g>
    <g clip-path="url(#clip3)">
        <path d="M76.201 0.758026L78.679 6.62303L85.023 7.16803C85.463 7.20603 85.642 7.75503 85.308 8.04403L80.496 12.213L81.938 18.415C82.038 18.846 81.571 19.185 81.193 18.956L75.741 15.668L70.289 18.956C69.91 19.184 69.444 18.845 69.544 18.415L70.986 12.213L66.173 8.04303C65.839 7.75403 66.017 7.20503 66.458 7.16703L72.802 6.62203L75.28 0.758026C75.452 0.350026 76.029 0.350026 76.201 0.758026Z" fill="#F4C179"/>
    </g>
    <g clip-path="url(#clip4)">
        <path d="M98.201 0.758026L100.679 6.62303L107.023 7.16803C107.463 7.20603 107.642 7.75503 107.308 8.04403L102.496 12.213L103.938 18.415C104.038 18.846 103.571 19.185 103.193 18.956L97.741 15.668L92.289 18.956C91.91 19.184 91.444 18.845 91.544 18.415L92.986 12.213L88.173 8.04303C87.839 7.75403 88.017 7.20503 88.458 7.16703L94.802 6.62203L97.28 0.758026C97.452 0.350026 98.029 0.350026 98.201 0.758026Z" fill="#DBDBDB"/>
    </g>
    <defs>
        <clipPath id="clip0">
            <rect width="19.481" height="19.481" fill="white"/>
        </clipPath>
        <clipPath id="clip1">
            <rect width="19.481" height="19.481" fill="white" transform="translate(22)"/>
        </clipPath>
        <clipPath id="clip2">
            <rect width="19.481" height="19.481" fill="white" transform="translate(44)"/>
        </clipPath>
        <clipPath id="clip3">
            <rect width="19.481" height="19.481" fill="white" transform="translate(66)"/>
        </clipPath>
        <clipPath id="clip4">
            <rect width="19.481" height="19.481" fill="white" transform="translate(88)"/>
        </clipPath>
    </defs>
</svg>